<?xml version="1.0" encoding="UTF-8"?><svg version="1.1" xmlns="http://www.w3.org/2000/svg" xmlns:xlink="http://www.w3.org/1999/xlink" x="0px" y="0px" viewBox="0 0 1600 1200" style="enable-background:new 0 0 1600 1200;" xml:space="preserve" width="1600px" height="1200px">

<g id="floor">
	<g>
		<g>
			<path d="M271.7,1102.6c75.8,0,151.6,0,227.3,0c3.9,0,3.9-6,0-6c-75.8,0-151.6,0-227.3,0
				C267.8,1096.6,267.8,1102.6,271.7,1102.6L271.7,1102.6z" style="fill:#E8E8E8;"/>
		</g>
	</g>
	<g>
		<g>
			<path d="M345.8,1079.1c76,0,152,0,228.1,0c21.6,0,43.2,0,64.7,0c3.9,0,3.9-6,0-6c-76,0-152,0-228.1,0
				c-21.6,0-43.2,0-64.7,0C342,1073.1,342,1079.1,345.8,1079.1L345.8,1079.1z" style="fill:#E8E8E8;"/>
		</g>
	</g>
	<g>
		<g>
			<path d="M633.7,1042.1c51.5,0,103,0,154.4,0c3.9,0,3.9-6,0-6c-51.5,0-103,0-154.4,0
				C629.8,1036.1,629.8,1042.1,633.7,1042.1L633.7,1042.1z" style="fill:#E8E8E8;"/>
		</g>
	</g>
	<g>
		<g>
			<path d="M765.9,1126.1c107.2,0,214.4,0,321.5,0c30,0,59.9,0,89.9,0c3.9,0,3.9-6,0-6c-107.2,0-214.4,0-321.5,0
				c-30,0-59.9,0-89.9,0C762,1120.1,762,1126.1,765.9,1126.1L765.9,1126.1z" style="fill:#E8E8E8;"/>
		</g>
	</g>
	<g>
		<g>
			<path d="M1019.2,1102.6c70.8,0,141.7,0,212.5,0c3.9,0,3.9-6,0-6c-70.8,0-141.7,0-212.5,0
				C1015.3,1096.6,1015.3,1102.6,1019.2,1102.6L1019.2,1102.6z" style="fill:#E8E8E8;"/>
		</g>
	</g>
</g>
<g id="board">
	<path d="M459.3,374.6c-5.2,0.9-13.4,3-22,8.3c-5.4,3.3-16.4,11.3-23.3,26c-2.5,5.2-8.1,17.3-5.3,32.3
		c4.1,22.2,23.6,33.3,26.7,35c9.9-15.1,19.7-30.3,29.6-45.4C463,412.1,461.1,393.4,459.3,374.6z" style="fill:#707070;"/>
	<path d="M466.7,429c14.6-7.9,29.1-15.8,43.7-23.8c3.2,4,9.2,12.9,9.1,24.9c0,2.7-0.3,5.2-0.8,7.5
		C501.3,434.7,484,431.8,466.7,429z" style="fill:#3F3F3F;"/>
	<path d="M310.1,498c1.8,23.5,3.5,47.1,5.3,70.6c6.4-0.4,12.8-0.9,19.1-1.3c-2.1-23.9-4.2-47.7-6.3-71.6
		C322.1,496.5,316.1,497.2,310.1,498z" style="fill:#3F3F3F;"/>
	<path d="M345.8,522.5c1,14.5,2,28.9,3.1,43.4c6.4-0.6,12.8-1.1,19.1-1.7c-1.4-14.5-2.7-28.9-4.1-43.4
		C357.8,521.3,351.8,521.9,345.8,522.5z" style="fill:#707070;"/>
	<path d="M573.3,612.1c-99.2,9.1-198.3,18.1-297.5,27.2c-9.1-145.2-18.3-290.4-27.4-435.7c98.9-3.5,197.9-7,296.8-10.5
		C554.6,332.8,564,472.5,573.3,612.1z" style="fill:none;stroke:#161616;stroke-width:2;stroke-miterlimit:10;"/>
	<g>
		<g>
			<path d="M350.7,176.1c1.1,7.9,2.3,15.8,3.4,23.7c0.3,1.9,3.2,1.1,2.9-0.8c-1.1-7.9-2.3-15.8-3.4-23.7
				C353.3,173.4,350.4,174.2,350.7,176.1L350.7,176.1z" style="fill:#E8E8E8;"/>
		</g>
	</g>
	<g>
		<g>
			<path d="M352.8,175.9c22.5-1.5,45.1-2.4,67.6-2.9c1.9,0,1.9-3,0-3c-22.6,0.5-45.1,1.5-67.6,2.9
				C350.9,173,350.9,176,352.8,175.9L352.8,175.9z" style="fill:#E8E8E8;"/>
		</g>
	</g>
	<g>
		<g>
			<path d="M419.5,171.8c1,8.5,1.8,16.9,2.3,25.4c0.1,1.9,3.1,1.9,3,0c-0.5-8.5-1.3-17-2.3-25.4
				C422.2,169.9,419.2,169.9,419.5,171.8L419.5,171.8z" style="fill:#E8E8E8;"/>
		</g>
	</g>
	<g>
		<g>
			<path d="M352.9,175.8c0.7,7.4,1.4,14.9,2.1,22.3c0.1,0.8,0.6,1.5,1.5,1.5c21.5,0.2,42.9-3.2,64.5-2.5
				c1.9,0.1,1.9-2.9,0-3c-21.5-0.7-42.9,2.6-64.5,2.5c0.5,0.5,1,1,1.5,1.5c-0.7-7.4-1.4-14.9-2.1-22.3
				C355.7,173.9,352.7,173.9,352.9,175.8L352.9,175.8z" style="fill:#E8E8E8;"/>
		</g>
	</g>
	<g>
		<g>
			<path d="M354.5,176.8c3.3,2,7.6,1,11.2,0.8c6-0.3,12-0.6,18-0.9c12-0.6,23.9-1.3,35.9-1.9c-0.5-0.5-1-1-1.5-1.5
				c0.3,6.5,0.6,13,0.9,19.6c0.1,1.9,3.1,1.9,3,0c-0.3-6.5-0.6-13-0.9-19.6c0-0.8-0.7-1.5-1.5-1.5c-10.6,0.6-21.3,1.1-31.9,1.7
				c-5.3,0.3-10.6,0.6-16,0.8c-4.2,0.2-12,2.2-15.7-0.1C354.4,173.2,352.9,175.8,354.5,176.8L354.5,176.8z" style="fill:#E8E8E8;"/>
		</g>
	</g>
	<g>
		<g>
			<path d="M354.4,177.4c1.5,6.1,2.5,12.3,3.1,18.6c1-0.1,2-0.3,2.9-0.4c-1.1-5.4-0.8-10.7,0.2-16.2
				c-1-0.1-2-0.3-2.9-0.4c0.2,6,0.6,11.7,2.9,17.2c0.7,1.6,3.2,0.4,2.7-1.2c-1.7-6.4-3.3-12.7-1.6-19.3c-1,0-1.9,0-2.9,0
				c0.9,6,1.8,12,2.7,18c0.3,1.9,3.2,1.1,2.9-0.8c-0.9-6-1.8-12-2.7-18c-0.2-1.5-2.6-1.3-2.9,0c-1.8,7.1-0.2,14,1.6,20.9
				c0.9-0.4,1.8-0.8,2.7-1.2c-2.1-5-2.3-10.4-2.5-15.7c0-1.6-2.6-2.1-2.9-0.4c-1.1,6-1.5,11.8-0.2,17.8c0.3,1.6,3.1,1.3,2.9-0.4
				c-0.6-6.5-1.7-13-3.2-19.4C356.8,174.7,354,175.5,354.4,177.4L354.4,177.4z" style="fill:#E8E8E8;"/>
		</g>
	</g>
	<g>
		<g>
			<path d="M362.1,182.7c1.1-1.8,2.2-3.6,3.3-5.4c-0.9-0.5-1.7-1-2.6-1.5c-1.3,2.9-2.5,5.8-3.8,8.7
				c-0.6,1.4,1.2,3.3,2.4,1.8c2-2.5,3.9-5.1,5.9-7.6c-0.8-0.5-1.7-1-2.5-1.5c-0.8,2.4-1.8,4.6-3.2,6.8c-0.9,1.4,1.3,3.2,2.4,1.8
				c1.5-1.9,3-3.8,4.6-5.7c-0.8-0.6-1.6-1.2-2.4-1.8c-2,4.7-4,9.3-6,14c-0.6,1.4,1.2,3.3,2.4,1.8c3.6-4.5,7.3-9.1,10.9-13.6
				c-0.8-0.6-1.6-1.2-2.4-1.8c-2.7,4.4-5.4,8.9-8.1,13.3c-0.7,1.1,0.4,2.6,1.7,2.2c1.6-0.5,1.8-0.7,3-1.7c-0.8-0.5-1.7-1-2.5-1.5
				c-0.6,1.7-1.6,3-3.1,4.1c-1.5,1.1-0.2,3.6,1.5,2.6c1.6-0.9,3.1-1.5,4.9-1.7c-0.6-0.6-1.2-1.2-1.8-1.8c-2.6-1.3-3.4-3.1-2.4-5.5
				c0.3-1.3,0.8-2.5,1.4-3.6c0.8-1.4,2.3-4.8,3.8-1.8c1.1,2.2-3.5,14.5-4.1,6.9c-0.1-2,0.1-4,0.7-5.8c0.4-1.4,1-2.7,1.7-4
				c1-2,1.5-2,1.6,0c1.9,4-0.4,10.3-2.3,13.8c0.9,0.1,1.8,0.2,2.7,0.4c-0.8-2.8-1.1-5.5-0.5-8.3c0.2-1.1,1.2-6.4,2.3-4.7
				c2.3,3.3-1.5,10.8-3.1,13.7c0.9,0.3,1.9,0.5,2.8,0.8c-0.3-2.7-0.4-5.3,0.1-8c0.3-1.8,1.4-7.6,3.3-7.8c2.7-0.3-2.5,12-3.7,13.8
				c0.9,0.1,1.8,0.2,2.7,0.4c-0.9-4.5-0.9-14.1,5.2-15.6c-0.6-0.3-1.2-0.7-1.8-1c1.1,6.1-0.6,12-4.8,16.5c0.8,0.2,1.7,0.4,2.5,0.7
				c-0.7-2.8-0.8-5.5-0.1-8.3c0.4-1.5,2.5-7.8,4.5-7.3c1.4,0.3-0.4,6.1-0.8,7.4c-1.1,3.2-2.8,6-5.3,8.4c0.8,0.2,1.7,0.4,2.5,0.7
				c-1.6-6.7,1.2-13.4,7.1-17c-0.7-0.3-1.5-0.6-2.2-0.9c2.3,6.1-3.6,14-7.5,18.1c0.8,0.2,1.7,0.4,2.5,0.7c-0.7-2.9-0.7-5.7,0.2-8.6
				c0.3-0.9,3.3-7.7,4.7-7.2c2,0.7-1.4,6.8-2,7.7c-0.7,1.3-2,3.6-3.3,4.4c-1.5,1-1.4,1.2-1.5-1c-0.1-3,1.9-6.4,3.6-8.6
				c0.9-1.2,2.4-3.1,3.8-3.6c1.6-0.7,1.4-0.9,1.2,1.2c-0.7,6.2-4.2,11.8-8.6,16.1c0.8,0.2,1.7,0.4,2.5,0.7c-0.9-5.9,1.1-12,5.5-16.1
				c1.3-1.2,2.8-2,3.3,0.5c0.2,1-1,3.4-1.4,4.3c-1.4,3.3-3.4,6.1-5.9,8.6c0.7,0,1.4,0,2.1,0c-1.8-2.1,0.5-6.7,1.6-8.7
				c0.5-0.9,4.8-7.5,6-6.9c1.4,0.7-1.7,7.4-2.1,8.1c-1.4,2.7-3.2,5.1-5.3,7.3c0.9,0.4,1.7,0.7,2.6,1.1c0.1-7.3,3.5-13.5,9.7-17.4
				c-0.8-0.4-1.5-0.9-2.3-1.3c0.1,6.7-2.3,12.6-7.1,17.3c0.9,0.4,1.7,0.7,2.6,1.1c0.6-7.3,4-13.6,9.6-18.3c-0.8-0.1-1.6-0.2-2.4-0.3
				c3.2,4.8-3.8,13.8-6.6,17.4c0.9,0.4,1.7,0.7,2.6,1.1c0.1-2.8,0.6-5.4,1.7-8c0.6-1.6,3.1-7.1,4.9-7.5c2.4-0.5-0.1,4.1-0.9,5.8
				c-1.4,2.9-3.3,5.4-5.5,7.7c0.8,0.5,1.7,1,2.5,1.5c0.9-6.2,3.4-14.4,9.9-16.7c-0.6-0.5-1.3-1-1.9-1.4c-0.8,6.8-3.8,12.6-8.8,17.2
				c0.9,0.4,1.7,0.7,2.6,1.1c0.3-3.2,1-6.3,2.4-9.3c0.9-1.9,3.3-6.9,5.5-7.3c1.1-0.2,0,1.5-0.4,2.6c-0.6,1.6-1.4,3.1-2.2,4.5
				c-1.6,2.8-3.6,5.3-5.9,7.6c0.9,0.4,1.7,0.7,2.6,1.1c0.4-6.4,3.4-11.9,8.4-15.8c-0.7-0.6-1.5-1.1-2.2-1.7
				c-0.8,4.7-3.2,8.4-6.4,11.9c-1.9,2.1-2.5,1.6-2.7-1.2c-0.2-3.8,2.1-7.6,5.9-8.6c-0.6-0.5-1.3-1-1.9-1.4c-0.3,6-2.1,11.4-5.3,16.4
				c0.9,0.3,1.9,0.5,2.8,0.8c0.3-3,1.1-5.9,2.5-8.6c0.9-1.8,3.2-6.3,5.2-6.8c2.9-0.8,0,4.9-0.7,6.3c-1.4,2.8-3.3,5.2-5.5,7.5
				c0.9,0.4,1.7,0.7,2.6,1.1c-0.4-7.3,4-13.7,10.9-15.9c-0.6-0.5-1.3-1-1.9-1.4c-0.8,7.1-4.2,13.1-9.7,17.7c0.9,0.4,1.7,0.7,2.6,1.1
				c0.8-6.9,4.3-12.8,10-16.8c-0.7-0.3-1.5-0.6-2.2-0.9c1.6,5.2-3.9,12-6.9,15.7c0.9,0.4,1.7,0.7,2.6,1.1c0.4-5.1,3.3-14.4,9.4-15.3
				c-0.6-0.6-1.2-1.2-1.8-1.8c-1.1,5.7-3.4,10.8-7.1,15.3c0.9,0.4,1.7,0.7,2.6,1.1c0.3-6.1,2.7-11.4,6.9-15.7
				c-0.8-0.1-1.6-0.2-2.4-0.3c2.3,4.2-2.4,11.6-4.5,15.3c0.9,0.4,1.8,0.8,2.7,1.2c1-4.8,1.8-12.9,6.3-15.8c-0.6-0.1-1.2-0.2-1.8-0.2
				c2.5,2.8-2.3,12.2-3.4,15c1,0.3,1.9,0.5,2.9,0.8c1.4-5.1,2.7-10.1,4.1-15.2c-1-0.1-2-0.3-2.9-0.4c0.2,4.8-0.5,9.3-2.1,13.9
				c1,0.1,2,0.3,2.9,0.4c0.5-4.5,0-11.5,2.6-15.3c-0.9-0.1-1.8-0.2-2.7-0.4c1.4,4.9,0.9,9.6,0.2,14.7c1,0.1,2,0.3,2.9,0.4
				c-0.4-5.6-0.8-11.3-1.2-16.9c-0.9,0.4-1.7,0.7-2.6,1.1c3.8,3.9,2.3,9,0.6,13.5c0.9-0.1,1.8-0.2,2.7-0.4c-1.1-2.1-3.3-5.6-3.2-8.1
				c-1-1.6-0.6-2.4,1.3-2.3c0.9,1.6,1.2,3.3,0.8,5c0.9-0.4,1.7-0.7,2.6-1.1c-1.6-1.9-2.4-3.7-2.9-6c-0.7,0.6-1.5,1.1-2.2,1.7
				c0.4,1.1,0.8,2.3,1.2,3.4c0.9,0.1,1.8,0.2,2.7,0.4c-0.7-2-1-3.8-0.9-5.9c-0.6,0.5-1.3,1-1.9,1.4c3.9,1.6,1.2,12,0.7,14.7
				c0.5-0.4,1-0.7,1.4-1.1c-7.6,0.2-15.2,0.4-22.8,0.6c-1.9,0.1-1.9,2.9,0,3c6.7,0.2,13.3-0.8,19.9-1.8c-0.3-1-0.5-1.9-0.8-2.9
				c-7.8,2.1-15.6,3.5-23.6,4.1c-1.9,0.1-1.9,2.9,0,3c7.8,0.3,15.4-2.4,23.2-2.1c-0.1-1-0.3-2-0.4-2.9c-6,2-12,2.6-18.3,1.9
				c0,1,0,2,0,3c7.2-0.7,14.4-1.4,21.6-2.1c-0.1-1-0.3-2-0.4-2.9c-4.8,1.4-9.5,1.9-14.5,1.7c0,1,0,2,0,3c4.9,0,9.6-0.6,14.3-1.8
				c1.9-0.5,1.1-3.3-0.8-2.9c-5.6,1.2-11.2,1.8-16.9,1.8c0,1,0,2,0,3c6.8-0.9,13.6-2,20.4-3.4c1.6-0.3,1.3-3.1-0.4-2.9
				c-6.5,0.8-12.9,0.7-19.3-0.3c-1.9-0.3-2.7,2.6-0.8,2.9c6.7,1,13.4,1.2,20.1,0.4c-0.1-1-0.3-2-0.4-2.9c-6.5,1.3-13,2.5-19.6,3.3
				c-1.9,0.2-2,3,0,3c6,0,11.8-0.6,17.7-1.9c-0.3-1-0.5-1.9-0.8-2.9c-4.5,1.1-8.9,1.7-13.5,1.7c-1.9,0-1.9,2.9,0,3
				c5.2,0.2,10.2-0.4,15.3-1.8c1.6-0.5,1.3-3.1-0.4-2.9c-7.2,0.7-14.4,1.4-21.6,2.1c-1.9,0.2-1.9,2.8,0,3c6.6,0.7,12.9,0,19.1-2
				c1.6-0.5,1.3-2.9-0.4-2.9c-7.8-0.3-15.4,2.4-23.2,2.1c0,1,0,2,0,3c8.3-0.6,16.4-2,24.4-4.2c1.9-0.5,1.1-3.2-0.8-2.9
				c-6.4,1-12.7,1.9-19.1,1.7c0,1,0,2,0,3c7.6-0.2,15.2-0.4,22.8-0.6c0.6,0,1.3-0.5,1.4-1.1c1-5.6,4.1-15.5-2.8-18.4
				c-1-0.4-1.8,0.6-1.9,1.4c-0.2,2.5,0.1,4.4,1,6.7c0.4,1.1,2.1,1.6,2.7,0.4c1.4-2.9,0.6-5.8-2.3-7.5c-1.2-0.7-2.5,0.4-2.2,1.7
				c0.6,2.9,1.8,5.1,3.7,7.4c0.9,1.1,2.5,0.1,2.6-1.1c0.3-3.2-2.5-12.7-7.6-9.8c-4.6,2.7,1.5,13.6,3,16.7c0.6,1.3,2.3,0.7,2.7-0.4
				c2.2-5.7,3.2-11.7-1.4-16.4c-0.9-0.9-2.7-0.3-2.6,1.1c0.4,5.6,0.8,11.3,1.2,16.9c0.1,1.6,2.7,2.2,2.9,0.4
				c0.8-5.5,1.4-10.8-0.2-16.3c-0.4-1.3-2-1.4-2.7-0.4c-3.1,4.4-2.5,11.7-3,16.8c-0.2,1.8,2.4,1.9,2.9,0.4c1.7-4.8,2.4-9.6,2.2-14.7
				c-0.1-1.7-2.5-2.1-2.9-0.4c-1.4,5.1-2.7,10.1-4.1,15.2c-0.5,1.9,2.2,2.6,2.9,0.8c1.8-4.6,6.6-13.4,2.6-18
				c-0.4-0.5-1.3-0.6-1.8-0.2c-5.5,3.6-6.5,11.7-7.7,17.6c-0.3,1.6,1.9,2.7,2.7,1.2c2.7-4.9,7.5-12.8,4.5-18.4
				c-0.5-0.8-1.7-1-2.4-0.3c-4.8,5-7.4,10.9-7.8,17.8c-0.1,1.2,1.7,2.1,2.6,1.1c4.1-4.9,6.7-10.4,7.9-16.6c0.2-1.2-0.7-2-1.8-1.8
				c-7.5,1.1-11.1,11.7-11.6,18.2c-0.1,1.3,1.7,2,2.6,1.1c3.9-4.7,9.7-12.1,7.7-18.6c-0.3-0.9-1.4-1.5-2.2-0.9
				c-6.6,4.6-10.6,11.3-11.5,19.3c-0.2,1.4,1.7,1.8,2.6,1.1c6.1-5.1,9.6-12,10.5-19.8c0.1-1-1-1.7-1.9-1.4
				c-8.2,2.6-13.6,10.2-13.1,18.8c0.1,1.3,1.6,2,2.6,1.1c2.3-2.3,14.3-18.6,6.8-20.4c-3.1-0.8-6.6,4-8.1,6
				c-3.1,4.1-4.7,8.8-5.3,13.9c-0.2,1.6,2.1,1.9,2.8,0.8c3.6-5.4,5.5-11.4,5.8-17.9c0-1-1-1.7-1.9-1.4c-4.1,1.1-6.6,4.1-7.6,8.2
				c-0.7,2.6-1.4,7.5,1.4,9.2c2.7,1.7,4.9-1.3,6.4-3.1c3.2-3.7,5.8-7.7,6.6-12.6c0.2-1.1-1-2.6-2.2-1.7c-6,4.6-9.4,10.9-9.9,18.4
				c-0.1,1.3,1.7,1.9,2.6,1.1c2.4-2.4,15.2-18.2,8.3-20.8c-3.1-1.2-6.4,3.8-7.8,5.8c-3.1,4.4-4.6,9.3-5.1,14.6
				c-0.1,1.4,1.7,1.9,2.6,1.1c5.6-5.2,8.9-11.7,9.7-19.3c0.1-0.9-1-1.7-1.9-1.4c-7.6,2.7-10.9,11.4-12,18.8
				c-0.2,1.4,1.4,2.7,2.5,1.5c2.4-2.5,13.8-18.2,6.8-20.2c-3.2-0.9-6.7,4.6-8.1,6.8c-2.6,4-3.8,8.6-4,13.3c-0.1,1.2,1.7,2.1,2.6,1.1
				c3.8-4.7,11.2-14.7,7.1-21c-0.6-0.9-1.6-0.9-2.4-0.3c-6.2,5.2-9.8,12.4-10.5,20.5c-0.1,1.3,1.7,1.9,2.6,1.1
				c5.3-5.3,8-12,7.9-19.4c0-1.1-1.3-1.9-2.3-1.3c-7.1,4.4-11.1,11.7-11.2,20c0,1.3,1.7,2,2.6,1.1c3.8-4,6.9-8.8,8.2-14.2
				c0.6-2.3,1-6.8-2.7-6.6c-3.9,0.2-8,7-9.4,10c-1.5,3.4-3.1,7.8-0.4,10.9c0.5,0.6,1.6,0.5,2.1,0c4-3.9,7-8.8,8.1-14.3
				c0.5-2.5,0.7-6.7-2.9-6.7c-3.8,0-7.9,5.6-9.4,8.5c-2.4,4.3-3,9-2.2,13.8c0.2,1.2,1.8,1.4,2.5,0.7c4.5-4.4,7.8-9.9,9.2-16.1
				c0.6-2.7,1.4-7.3-2.6-7.2c-6.9,0.2-16.4,17.5-9.9,22c0.5,0.3,1.1,0.2,1.5,0c3.5-1.7,15.9-18.5,8.3-20.7c-3.2-1-6.8,4.4-8,6.7
				c-2.3,4.3-2.8,9-1.7,13.6c0.2,1.1,1.8,1.5,2.5,0.7c4.7-5,11-13.9,8.3-21c-0.3-0.9-1.3-1.4-2.2-0.9c-7.1,4.3-10.4,12.4-8.5,20.4
				c0.3,1.1,1.7,1.4,2.5,0.7c4-3.9,6.2-8.8,7.2-14.3c0.4-2.4,1.3-6.8-1.8-7.8c-3.3-1-6.4,4.6-7.5,7c-2,4.3-2.3,9-1.2,13.7
				c0.3,1.1,1.7,1.5,2.5,0.7c5-5.4,7-12.2,5.6-19.4c-0.2-0.8-1.1-1.2-1.8-1c-7.8,1.9-8.6,12.9-7.3,19.3c0.3,1.4,2.1,1.3,2.7,0.4
				c2.6-3.7,4.3-7.8,4.7-12.4c0.2-2.2,0.8-6.8-2.2-7.6c-3-0.8-4.8,3.6-5.7,5.7c-2.1,4.7-2.6,9.7-2,14.8c0.2,1.4,2,2.2,2.8,0.8
				c3.1-5.4,5.7-13.5,2.9-19.5c-0.2-0.5-0.8-0.8-1.3-0.7c-7.4,0.1-7,14.2-5.7,18.9c0.3,1.2,2.1,1.5,2.7,0.4
				c2.8-4.9,4.6-12.1,2.2-17.6c-1.7-3.9-4.8-2.1-6.7,0.8c-2.7,4.2-4.4,12.1-1.7,16.7c2.1,3.6,4.8,0.9,6.3-1.8
				c1.8-3.3,4.7-11.4,1.7-14.9c-2.7-3.1-6.2,1.2-7.7,3.4c-2.3,3.5-4.5,9.9-1.6,13.7c2.2,2.9,6.2,2.3,7.4-1c0.5-1.2-0.8-2-1.8-1.8
				c-2.1,0.3-3.8,0.9-5.6,2c0.5,0.9,1,1.7,1.5,2.6c2.1-1.6,3.5-3.4,4.5-5.9c0.6-1.5-1.5-2.3-2.5-1.5c-0.6,0.3-1.1,0.6-1.7,0.9
				c0.6,0.7,1.1,1.5,1.7,2.2c2.7-4.4,5.4-8.9,8.1-13.3c0.9-1.4-1.3-3.2-2.4-1.8c-3.6,4.5-7.3,9.1-10.9,13.6c0.8,0.6,1.6,1.2,2.4,1.8
				c2-4.7,4-9.3,6-14c0.6-1.4-1.2-3.3-2.4-1.8c-1.5,1.9-3,3.8-4.6,5.7c0.8,0.6,1.6,1.2,2.4,1.8c1.5-2.4,2.6-4.8,3.5-7.5
				c0.4-1.4-1.6-2.7-2.5-1.5c-2,2.5-3.9,5.1-5.9,7.6c0.8,0.6,1.6,1.2,2.4,1.8c1.3-2.9,2.5-5.8,3.8-8.7c0.8-1.7-1.6-3.2-2.6-1.5
				c-1.1,1.8-2.2,3.6-3.3,5.4C358.5,182.9,361.1,184.4,362.1,182.7L362.1,182.7z" style="fill:#E8E8E8;"/>
		</g>
	</g>
	<g>
		<g>
			<path d="M416.4,174.2c0,3.4,0.1,6.9,0.2,10.3c0.1,2.5,1.2,7.8-0.4,9.7c-1,1.2,0.3,3.3,1.8,2.4
				c0.7-0.5,0.9-0.6,1.5-1.2c0.6-0.8,0.5-2.2-0.7-2.5c-1.8-0.4-3.1-0.4-4.9,0.2c-1.8,0.6-1.1,3.5,0.8,2.9c1.1-0.1,2.2-0.1,3.3-0.2
				c-0.2-0.8-0.4-1.7-0.7-2.5c-0.3,0.3-0.6,0.5-0.8,0.8c0.6,0.8,1.2,1.6,1.8,2.4c2.2-2.6,1.6-4.4,1.4-7.9c-0.2-4.7-0.3-9.5-0.3-14.2
				C419.4,172.2,416.4,172.2,416.4,174.2L416.4,174.2z" style="fill:#E8E8E8;"/>
		</g>
	</g>
	<g>
		<g>
			<path d="M268.5,261.3c41.1-2.3,82.3-3.2,123.5-2.7c1.9,0,1.9-3,0-3c-41.2-0.5-82.4,0.4-123.5,2.7
				C266.6,258.4,266.6,261.4,268.5,261.3L268.5,261.3z" style="fill:#E8E8E8;"/>
		</g>
	</g>
	<g>
		<g>
			<path d="M273.8,288.7c29.5-3.1,59.1-4.7,88.7-4.7c1.9,0,1.9-3,0-3c-29.6,0-59.2,1.5-88.7,4.7
				C271.9,285.9,271.8,288.9,273.8,288.7L273.8,288.7z" style="fill:#E8E8E8;"/>
		</g>
	</g>
	<g>
		<g>
			<path d="M276.5,339.8c39.4-4.1,78.9-6.4,118.5-6.7c1.9,0,1.9-3,0-3c-39.6,0.3-79.1,2.6-118.5,6.7
				C274.6,337,274.6,340,276.5,339.8L276.5,339.8z" style="fill:#E8E8E8;"/>
		</g>
	</g>
	<g>
		<g>
			<path d="M438.3,476.6c-19.4-7.5-30.9-29-29-49.4c2-20.7,17.4-38.4,35.9-46.7c12.7-5.7,26.7-6.9,39.2-0.2
				c9.8,5.2,18.2,13.2,24.1,22.6c12.3,19.6,11.4,43.3-1.6,62.5c-7.8,11.5-22.5,14.8-35.4,16.8c-12.8,2-26.3,1.3-37.1-6.6
				c-1.6-1.1-3.1,1.5-1.5,2.6c10,7.3,22.3,8.8,34.3,7.6c11.9-1.2,26-3.8,35.6-11.4c9.5-7.5,15.2-21.7,17.2-33.3
				c1.9-11.1-0.2-22.3-4.9-32.5c-10.5-22.7-34.7-40.9-60.4-34.6c-22.2,5.4-41.8,23.3-47.2,45.8c-5.8,23.9,6.7,50.6,29.9,59.6
				C439.3,480.2,440.1,477.3,438.3,476.6L438.3,476.6z" style="fill:#E8E8E8;"/>
		</g>
	</g>
	<g>
		<g>
			<path d="M459.4,374.5c1.2,18.5,2.4,37,3.7,55.5c0.1,1.9,3.1,1.9,3,0c-1.2-18.5-2.4-37-3.7-55.5
				C462.3,372.6,459.3,372.6,459.4,374.5L459.4,374.5z" style="fill:#E8E8E8;"/>
		</g>
	</g>
	<g>
		<g>
			<path d="M465.9,431.8c15.2-8.3,30.2-17,45-26.2c1.6-1,0.1-3.6-1.5-2.6c-14.7,9.2-29.7,17.9-45,26.2
				C462.7,430.2,464.2,432.8,465.9,431.8L465.9,431.8z" style="fill:#E8E8E8;"/>
		</g>
	</g>
	<g>
		<g>
			<path d="M466.5,432.3c17.2,0,34.2,4.1,51.1,7c1.9,0.3,2.7-2.6,0.8-2.9c-17.1-2.9-34.4-7.1-51.9-7.1
				C464.6,429.3,464.6,432.3,466.5,432.3L466.5,432.3z" style="fill:#E8E8E8;"/>
		</g>
	</g>
	<g>
		<g>
			<path d="M463.9,430.3c-9.6,15.9-19.2,31.7-28.9,47.6c-1,1.7,1.6,3.2,2.6,1.5c9.6-15.9,19.2-31.7,28.9-47.6
				C467.5,430.2,464.9,428.6,463.9,430.3L463.9,430.3z" style="fill:#E8E8E8;"/>
		</g>
	</g>
	<g>
		<g>
			<path d="M293.6,572c43.5-3.3,86.9-7.1,130.2-11.6c1.9-0.2,1.9-3.2,0-3c-43.4,4.4-86.8,8.3-130.2,11.6
				C291.7,569.2,291.7,572.2,293.6,572L293.6,572z" style="fill:#E8E8E8;"/>
		</g>
	</g>
	<g>
		<g>
			<path d="M308.4,498.3c1.6,23,3.3,46.1,4.9,69.1c0.1,1.9,3.1,1.9,3,0c-1.6-23-3.3-46.1-4.9-69.1
				C311.2,496.4,308.2,496.4,308.4,498.3L308.4,498.3z" style="fill:#E8E8E8;"/>
		</g>
	</g>
	<g>
		<g>
			<path d="M311.3,498.6c5.7-1,11.4-1.3,17.2-1c-0.5-0.5-1-1-1.5-1.5c1.5,23.4,3.7,46.7,6.4,69.9c0.2,1.9,3.2,1.9,3,0
				c-2.8-23.2-4.9-46.6-6.4-69.9c-0.1-0.8-0.6-1.5-1.5-1.5c-6.1-0.3-12,0.1-18,1.1C308.6,496.1,309.5,499,311.3,498.6L311.3,498.6z" style="fill:#E8E8E8;"/>
		</g>
	</g>
	<g>
		<g>
			<path d="M342.8,522c2.3,13.9,3.7,28,4.2,42.1c0.1,1.9,3.1,1.9,3,0c-0.5-14.4-1.9-28.7-4.3-42.9
				C345.4,519.3,342.5,520.1,342.8,522L342.8,522z" style="fill:#E8E8E8;"/>
		</g>
	</g>
	<g>
		<g>
			<path d="M346.4,523.5c5.8,0,11.5-0.3,17.2-1.1c-0.5-0.5-1-1-1.5-1.5c1.4,13.9,2.9,27.7,4.3,41.6c0.2,1.9,3.2,1.9,3,0
				c-1.4-13.9-2.9-27.7-4.3-41.6c-0.1-0.7-0.6-1.6-1.5-1.5c-5.7,0.7-11.5,1.1-17.2,1.1C344.5,520.5,344.5,523.5,346.4,523.5
				L346.4,523.5z" style="fill:#E8E8E8;"/>
		</g>
	</g>
	<g>
		<g>
			<path d="M378.4,498.1c2.4,21.6,3.9,43.2,4.5,65c0.1,1.9,3.1,1.9,3,0c-0.7-21.7-2.2-43.4-4.5-65
				C381.2,496.2,378.2,496.2,378.4,498.1L378.4,498.1z" style="fill:#E8E8E8;"/>
		</g>
	</g>
	<g>
		<g>
			<path d="M379.9,499.3c3.2,0.2,6.5,0.3,9.7,0.5c4.5,0.2,4.6,0.3,4.7,4.8c0.3,6.5,0.6,12.9,1,19.4
				c0.9,12.4,2.3,24.7,4.6,36.9c0.4,1.9,3.2,1.1,2.9-0.8c-2.9-15.4-4.3-31.1-5.1-46.8c-0.2-3.6-0.3-7.1-0.5-10.7
				c-0.1-1.4,0.1-3.5-1-4.7c-1.2-1.2-3.3-1-4.8-1.1c-3.9-0.2-7.7-0.4-11.6-0.6C378,496.2,378,499.2,379.9,499.3L379.9,499.3z" style="fill:#E8E8E8;"/>
		</g>
	</g>
	<g>
		<g>
			<path d="M418.8,593.3c38.6-2.7,77.1-7.6,115.1-14.7c1.9-0.4,1.1-3.2-0.8-2.9c-37.8,7.1-76,11.9-114.3,14.6
				C416.8,590.4,416.8,593.4,418.8,593.3L418.8,593.3z" style="fill:#E8E8E8;"/>
		</g>
	</g>
	<g>
		<g>
			<path d="M477.6,574.2c16.4-1.7,32.9-3.4,49.3-5.1c1.9-0.2,1.9-3.2,0-3c-16.4,1.7-32.9,3.4-49.3,5.1
				C475.7,571.4,475.7,574.4,477.6,574.2L477.6,574.2z" style="fill:#E8E8E8;"/>
		</g>
	</g>
	<g>
		<g>
			<path d="M505.6,554.2c7.5-0.3,15.1-0.6,22.6-0.9c1.9-0.1,1.9-3.1,0-3c-7.5,0.3-15.1,0.6-22.6,0.9
				C503.6,551.3,503.6,554.3,505.6,554.2L505.6,554.2z" style="fill:#E8E8E8;"/>
		</g>
	</g>
	<g>
		<g>
			<path d="M426.4,217.9c1.9,5.5,2.7,11.1,2.4,16.9c-0.1,1.9,2.9,1.9,3,0c0.3-6.1-0.5-11.9-2.5-17.7
				C428.6,215.3,425.7,216.1,426.4,217.9L426.4,217.9z" style="fill:#E8E8E8;"/>
		</g>
	</g>
	<g>
		<g>
			<path d="M428.9,218.2c27.5-2.8,55-4.6,82.6-5.5c1.9-0.1,1.9-3.1,0-3c-27.6,0.9-55.2,2.7-82.6,5.5
				C427,215.4,427,218.4,428.9,218.2L428.9,218.2z" style="fill:#E8E8E8;"/>
		</g>
	</g>
	<g>
		<g>
			<path d="M431.8,236.4c27.4-2,54.7-4,82.1-6c1.9-0.1,1.9-3.1,0-3c-27.4,2-54.7,4-82.1,6
				C429.9,233.5,429.9,236.5,431.8,236.4L431.8,236.4z" style="fill:#E8E8E8;"/>
		</g>
	</g>
	<g>
		<g>
			<path d="M511.9,213.2c0.9,6.2,1.8,12.3,2.7,18.5c0.3,1.9,3.2,1.1,2.9-0.8c-0.9-6.2-1.8-12.3-2.7-18.5
				C514.5,210.5,511.6,211.3,511.9,213.2L511.9,213.2z" style="fill:#E8E8E8;"/>
		</g>
	</g>
</g>
<g id="background">
	<g>
		<g>
			<path d="M995.5,294.6c0.1,3.8,0.3,7.5,0.8,11.3c0.3,1.9,3.3,1.9,3,0c-0.5-3.7-0.8-7.5-0.8-11.3
				C998.5,292.7,995.5,292.7,995.5,294.6L995.5,294.6z" style="fill:#E8E8E8;"/>
		</g>
	</g>
	<g>
		<g>
			<path d="M997.7,296.1c64.7,0,129.4,0,194.1,0c1.9,0,1.9-3,0-3c-64.7,0-129.4,0-194.1,0
				C995.8,293.1,995.8,296.1,997.7,296.1L997.7,296.1z" style="fill:#E8E8E8;"/>
		</g>
	</g>
	<g>
		<g>
			<path d="M1190,295.8c0,2.2,0,4.4,0,6.6c0,1.9,3,1.9,3,0c0-2.2,0-4.4,0-6.6C1193,293.8,1190,293.8,1190,295.8
				L1190,295.8z" style="fill:#E8E8E8;"/>
		</g>
	</g>
	<g>
		<g>
			<path d="M999.5,307c63.9,0,127.8,0,191.6,0c1.9,0,1.9-3,0-3c-63.9,0-127.8,0-191.6,0C997.5,304,997.5,307,999.5,307
				L999.5,307z" style="fill:#E8E8E8;"/>
		</g>
	</g>
	<g>
		<g>
			<path d="M999.2,260.1c2.5,11.3,4.6,22.7,6.3,34.1c0.3,1.9,3.2,1.1,2.9-0.8c-1.8-11.4-3.9-22.8-6.3-34.1
				C1001.6,257.4,998.8,258.2,999.2,260.1L999.2,260.1z" style="fill:#E8E8E8;"/>
		</g>
	</g>
	<g>
		<g>
			<path d="M1001,259.9c13.1,0.4,26.8,2,39.9,0.4c1.9-0.2,1.9-3.2,0-3c-13.1,1.6-26.8,0-39.9-0.4
				C999.1,256.8,999.1,259.8,1001,259.9L1001,259.9z" style="fill:#E8E8E8;"/>
		</g>
	</g>
	<g>
		<g>
			<path d="M1039.4,260.9c-1.4,10.8-2.7,21.6-4.1,32.5c-0.2,1.9,2.8,1.9,3,0c1.4-10.8,2.7-21.6,4.1-32.5
				C1042.6,259,1039.6,259,1039.4,260.9L1039.4,260.9z" style="fill:#E8E8E8;"/>
		</g>
	</g>
	<g>
		<g>
			<path d="M1015.9,256.6c-2-0.9-4.4-1.8-5.9-3.4c-2.6-2.6-2.4-6.1-2.8-9.5c-0.6-4.5-3.1-8.5-3.4-13.1
				c-0.8,0.4-1.5,0.9-2.3,1.3c9.3,6,17.5,14.5,17.2,26.3c-0.1,1.9,2.9,1.9,3,0c0.4-12.9-8.5-22.3-18.7-28.9
				c-0.9-0.6-2.3,0.2-2.3,1.3c0.2,2.7,1,5.1,1.9,7.7c1.3,3.6,1.3,7.1,2,10.8c1.1,5.5,4.9,7.9,9.7,10.1
				C1016.1,259.9,1017.6,257.4,1015.9,256.6L1015.9,256.6z" style="fill:#E8E8E8;"/>
		</g>
	</g>
	<g>
		<g>
			<path d="M1018.8,243.8c-1.1-7.6,3.9-14.9,6.7-21.6c2.2-5.3,3.8-10.7,3.5-16.5c-1,0.1-2,0.3-2.9,0.4
				c3.7,17.3,8.3,33.7,0.4,50.7c-0.8,1.7,1.8,3.3,2.6,1.5c3.6-7.8,5.5-16.2,5.1-24.8c-0.5-9.5-3.2-18.9-5.2-28.2
				c-0.3-1.7-3-1.3-2.9,0.4c0.6,13.9-12.2,25.1-10.1,38.9C1016.2,246.5,1019.1,245.7,1018.8,243.8L1018.8,243.8z" style="fill:#E8E8E8;"/>
		</g>
	</g>
	<g>
		<g>
			<path d="M1067.7,185.9c1.2,36.4,1.6,72.7,0.9,109.1c0,1.9,3,1.9,3,0c0.6-36.4,0.3-72.8-0.9-109.1
				C1070.7,183.9,1067.7,183.9,1067.7,185.9L1067.7,185.9z" style="fill:#E8E8E8;"/>
		</g>
	</g>
	<g>
		<g>
			<path d="M1070,186.4c4.3-3.6,11.6-2,16.4-0.5c1.8,0.6,2.6-2.3,0.8-2.9c-6.1-1.9-14.1-3.1-19.3,1.3
				C1066.4,185.5,1068.5,187.6,1070,186.4L1070,186.4z" style="fill:#E8E8E8;"/>
		</g>
	</g>
	<g>
		<g>
			<path d="M1085.2,185.9c0.2,35.9,0.4,71.7,0.6,107.6c0,1.9,3,1.9,3,0c-0.2-35.9-0.4-71.7-0.6-107.6
				C1088.2,183.9,1085.2,183.9,1085.2,185.9L1085.2,185.9z" style="fill:#E8E8E8;"/>
		</g>
	</g>
	<g>
		<g>
			<path d="M1072.2,210.1c4-3.3,9.9-3,13.6,0.5c1.4,1.3,3.5-0.8,2.1-2.1c-5-4.7-12.6-4.8-17.8-0.5
				C1068.6,209.2,1070.7,211.3,1072.2,210.1L1072.2,210.1z" style="fill:#E8E8E8;"/>
		</g>
	</g>
	<g>
		<g>
			<path d="M1070.9,198.6c4.4-3.8,10.7-3.9,15.3-0.4c1.6,1.2,3-1.5,1.5-2.6c-5.8-4.3-13.6-3.7-19,0.9
				C1067.3,197.8,1069.5,199.9,1070.9,198.6L1070.9,198.6z" style="fill:#E8E8E8;"/>
		</g>
	</g>
	<g>
		<g>
			<path d="M1088.3,211.6c4.5,0,8.9,0.5,13.3,1.6c-0.4-0.5-0.7-1-1.1-1.4c0.6,27,0.3,53.9-1.1,80.9
				c-0.1,1.9,2.9,1.9,3,0c1.4-26.9,1.7-53.9,1.1-80.9c0-0.6-0.5-1.3-1.1-1.4c-4.7-1.2-9.3-1.7-14.1-1.7
				C1086.3,208.6,1086.3,211.6,1088.3,211.6L1088.3,211.6z" style="fill:#E8E8E8;"/>
		</g>
	</g>
	<g>
		<g>
			<path d="M1089,240c4-2.6,8.8-2.7,12.9-0.3c1.7,1,3.2-1.6,1.5-2.6c-5-3-11.1-2.9-15.9,0.3
				C1085.9,238.4,1087.4,241,1089,240L1089,240z" style="fill:#E8E8E8;"/>
		</g>
	</g>
	<g>
		<g>
			<path d="M1088.5,225.7c3.5-1.7,7.5-1.8,11.1-0.3c1.8,0.7,3.3-1.8,1.5-2.6c-4.7-2-9.5-1.9-14.1,0.3
				C1085.3,224,1086.8,226.6,1088.5,225.7L1088.5,225.7z" style="fill:#E8E8E8;"/>
		</g>
	</g>
	<g>
		<g>
			<path d="M1110.1,293c0-1.7-1.1-7.9-0.1-9.1c1.4-1.7,9.1-1.1,11.1-1.2c6.9-0.4,13.9-0.7,20.8-0.8
				c13.9-0.2,27.8,0.3,41.6,1.4c-0.5-0.5-1-1-1.5-1.5c0.6,4.5,0.9,9,0.8,13.6c0,1.9,3,1.9,3,0c0-4.6-0.2-9.1-0.8-13.6
				c-0.1-0.9-0.6-1.4-1.5-1.5c-17.1-1.3-34.4-1.7-51.5-1.1c-4,0.1-7.9,0.3-11.9,0.6c-2.9,0.2-8.3-0.4-11,0.9
				c-3.9,1.8-2.1,9.1-2,12.4C1107.1,294.9,1110.1,295,1110.1,293L1110.1,293z" style="fill:#E8E8E8;"/>
		</g>
	</g>
	<g>
		<g>
			<path d="M1120.4,279.3c-0.2-1.1-1.2-4.4-1-5.5c0.7-3,3.6-2.3,5.8-2.3c3.6-0.1,7.3-0.1,10.9-0.2
				c7.6-0.1,15.2-0.3,22.9-0.4c7.3-0.1,14.6-0.3,21.9-0.4c4-0.1,8-0.1,11.9-0.2c2.8,0,4.4-1,5.3,2.6c0.4,1.6,0.1,3.7,0,5.3
				c-0.1,1.9,2.9,1.9,3,0c0.1-2.6,0.9-7.7-1.2-9.9c-1.9-1.9-5.8-1-8.1-0.9c-11.3,0.2-22.5,0.4-33.8,0.6c-10.9,0.2-21.9,0.4-32.8,0.6
				c-2.2,0-6.9-0.9-8.5,1.1c-1.9,2.3,0.4,8,0.8,10.5C1117.9,282,1120.8,281.2,1120.4,279.3L1120.4,279.3z" style="fill:#E8E8E8;"/>
		</g>
	</g>
	<g>
		<g>
			<path d="M1182.9,283.2c4.5,0.1,9.1,0.2,13.6-0.1c2.2-0.2,4.4-1,4.2-3.6c-0.2-1.9-3.2-1.9-3,0
				c0.1,1.1-13.5,0.8-14.8,0.7C1181,280.1,1181,283.1,1182.9,283.2L1182.9,283.2z" style="fill:#E8E8E8;"/>
		</g>
	</g>
	<g>
		<g>
			<path d="M1129.2,269.2c-0.1-1.7-0.6-4-0.4-5.7c0.2-2-0.3-2.3,2-2.6c3.2-0.4,7.3,0.7,10.5,0.9
				c6.7,0.5,13.5,0.8,20.2,0.9c6.7,0.1,13.5,0.1,20.2-0.2c3-0.1,6.6-0.9,9.6-0.5c1.4-0.6,2.5-0.2,3.2,1.1c1.1,0.5,1.5,1.4,1.4,2.5
				c0.3,0.8,0.4,1.8,0.7,2.7c0.7,1.8,3.6,1,2.9-0.8c-0.9-2.2-0.3-5.5-2.1-7.4c-1.6-1.7-3.9-1.3-6.1-1.2c-9.9,0.5-19.9,0.8-29.8,0.7
				c-9.6-0.2-19.2-0.7-28.8-1.6c-2-0.2-5.1-1-6.5,1c-1.6,2.4-0.2,7.5,0,10.1C1126.4,271.1,1129.4,271.1,1129.2,269.2L1129.2,269.2z" style="fill:#E8E8E8;"/>
		</g>
	</g>
	<g>
		<g>
			<path d="M1205.9,368.2c0,14.8,0,29.7,0,44.5c0,1.9,3,1.9,3,0c0-14.8,0-29.7,0-44.5
				C1208.9,366.3,1205.9,366.3,1205.9,368.2L1205.9,368.2z" style="fill:#E8E8E8;"/>
		</g>
	</g>
	<g>
		<g>
			<path d="M1208.4,368.2c26,0,52,0,78,0c1.9,0,1.9-3,0-3c-26,0-52,0-78,0C1206.5,365.2,1206.5,368.2,1208.4,368.2
				L1208.4,368.2z" style="fill:#E8E8E8;"/>
		</g>
	</g>
	<g>
		<g>
			<path d="M1285,367.2c0,14.8,0,29.7,0,44.5c0,1.9,3,1.9,3,0c0-14.8,0-29.7,0-44.5C1288,365.3,1285,365.3,1285,367.2
				L1285,367.2z" style="fill:#E8E8E8;"/>
		</g>
	</g>
	<g>
		<g>
			<path d="M1207.4,415.2c26,0,52,0,78,0c1.9,0,1.9-3,0-3c-26,0-52,0-78,0C1205.5,412.2,1205.5,415.2,1207.4,415.2
				L1207.4,415.2z" style="fill:#E8E8E8;"/>
		</g>
	</g>
	<g>
		<g>
			<path d="M1241.4,365.2c0-2.6,0.2-5,0.9-7.5c0.3-1.1,0.7-2.8,1.4-3.6c0.3-1,1-1.3,2.2-0.9c1.6-0.7,2.4-0.2,2.5,1.6
				c1.2,4.2,1.4,9,2,13.4c0.3,1.9,3.2,1.1,2.9-0.8c-0.6-4.4-0.8-9.1-2-13.4c-0.6-2.4-2.4-4.9-5.1-5.1c-6.7-0.4-7.9,11.8-7.9,16.3
				C1238.5,367.1,1241.5,367.1,1241.4,365.2L1241.4,365.2z" style="fill:#E8E8E8;"/>
		</g>
	</g>
	<g>
		<g>
			<path d="M1210.8,374.7c0,11,0,22,0,33c0,1.9,3,1.9,3,0c0-11,0-22,0-33C1213.8,372.8,1210.8,372.8,1210.8,374.7
				L1210.8,374.7z" style="fill:#E8E8E8;"/>
		</g>
	</g>
	<g>
		<g>
			<path d="M1213.9,374.7c22.7,0,45.4,0,68,0c1.9,0,1.9-3,0-3c-22.7,0-45.4,0-68,0C1212,371.7,1212,374.7,1213.9,374.7
				L1213.9,374.7z" style="fill:#E8E8E8;"/>
		</g>
	</g>
	<g>
		<g>
			<path d="M1280,373.7c0,11.7,0,23.3,0,35c0,1.9,3,1.9,3,0c0-11.7,0-23.3,0-35C1283,371.8,1280,371.8,1280,373.7
				L1280,373.7z" style="fill:#E8E8E8;"/>
		</g>
	</g>
	<g>
		<g>
			<path d="M1212.9,409.2c21.7,0,43.4,0,65,0c1.9,0,1.9-3,0-3c-21.7,0-43.4,0-65,0C1211,406.2,1211,409.2,1212.9,409.2
				L1212.9,409.2z" style="fill:#E8E8E8;"/>
		</g>
	</g>
	<g>
		<g>
			<path d="M1215.7,395.9c2.2-3.2,4.2-3.9,5.9-2.3c0.3,0.2,0.5,0.4,0.8,0.6c0.7,0.3,1.2,0.8,1.9,1
				c1.2,0.4,2.6,0.3,3.8-0.2c0.9-0.4,1.7-1.1,2-2.1c0.5-1.6-0.7-1.9-0.8-3.3c-0.5-0.6-0.3-1.2,0.6-2c0.2-2.3,1.6-2.8,4-1.4
				c0.6,0,1.2,0.2,1.7,0.1c1.8-0.3,2-0.9,3.3-2c4.2-3.4,8.9-1.7,10,3.7c0.1,0.7,0.6,5.3-0.2,5.8c-0.8-1-1.6-1.9-2.4-2.9
				c2.6,0.4,4.5,1.8,5.6,4c0.6,1,1.9,0.9,2.6,0c2-2.1,4-2.2,6-0.2c0.7-0.7,1.4-1.4,2.1-2.1c-0.8-0.7-1.5-1.4-2.3-2.1
				c-2.6-2.2-2.4-4.7,0.7-7.6c4.2,0.2,6.4,4.3,4.6,8c-2.3,4.5-7.8,5.1-12.3,4.7c0,1,0,2,0,3c6.5,0.4,13.1,0.8,19.6,1.2
				c1.9,0.1,1.9-2.9,0-3c-6.5-0.4-13.1-0.8-19.6-1.2c-1.9-0.1-1.9,2.8,0,3c5.2,0.5,10.9-0.5,14.2-5.1c2.6-3.7,2.4-9.3-1.4-12.2
				c-2.9-2.2-7.3-1.8-9.7,1.1c-3.6,4.5,0.6,9.4,4,12.4c1.4,1.3,3.5-0.7,2.1-2.1c-3.2-3.4-8.1-2.8-10.7,0.8c0.9,0,1.7,0,2.6,0
				c-2.5-4.1-7.2-7.1-11.9-4.6c-3.6,2-4.9,7.2-1.6,10.2c3.4,3.1,8.3,0.7,10.1-2.8c2-4,1.6-10.3-1.3-13.9c-2.9-3.6-8-4-11.6-1.3
				c-2.5,1.9-1,2.2-5.2,1.9c-1.4-0.1-2.6-0.4-4,0c-1.5,0.4-2.9,1.3-3.6,2.8c-0.5,1.1-0.7,2.1-0.2,3.3c0.1,0.4,1.2,1.3,1.1,1.6
				c-0.4,2.2-6.2-1.8-7.2-2c-4.5-0.7-7.5,4.1-6.2,8C1213.4,398.5,1216.3,397.8,1215.7,395.9L1215.7,395.9z" style="fill:#E8E8E8;"/>
		</g>
	</g>
	<g>
		<g>
			<path d="M1301.4,311.4c0,11.5,0,22.9,0,34.4c0,1.9,3,1.9,3,0c0-11.5,0-22.9,0-34.4
				C1304.4,309.5,1301.4,309.5,1301.4,311.4L1301.4,311.4z" style="fill:#E8E8E8;"/>
		</g>
	</g>
	<g>
		<g>
			<path d="M1304.6,311.2c18.4,0,36.8,0,55.2,0c1.9,0,1.9-3,0-3c-18.4,0-36.8,0-55.2,0
				C1302.6,308.2,1302.6,311.2,1304.6,311.2L1304.6,311.2z" style="fill:#E8E8E8;"/>
		</g>
	</g>
	<g>
		<g>
			<path d="M1303.7,348.2c18.4,0,36.8,0,55.2,0c1.9,0,1.9-3,0-3c-18.4,0-36.8,0-55.2,0
				C1301.8,345.2,1301.8,348.2,1303.7,348.2L1303.7,348.2z" style="fill:#E8E8E8;"/>
		</g>
	</g>
	<g>
		<g>
			<path d="M1358.3,311c0,11.8,0,23.5,0,35.3c0,1.9,3,1.9,3,0c0-11.8,0-23.5,0-35.3C1361.3,309,1358.3,309,1358.3,311
				L1358.3,311z" style="fill:#E8E8E8;"/>
		</g>
	</g>
	<g>
		<g>
			<path d="M1304.8,312.7c0,10.9,0,21.8,0,32.7c0,1.9,3,1.9,3,0c0-10.9,0-21.8,0-32.7
				C1307.8,310.7,1304.8,310.7,1304.8,312.7L1304.8,312.7z" style="fill:#E8E8E8;"/>
		</g>
	</g>
	<g>
		<g>
			<path d="M1305.9,345.6c17.6,0,35.1,0,52.7,0c1.9,0,1.9-3,0-3c-17.6,0-35.1,0-52.7,0
				C1303.9,342.6,1303.9,345.6,1305.9,345.6L1305.9,345.6z" style="fill:#E8E8E8;"/>
		</g>
	</g>
	<g>
		<g>
			<path d="M1306.7,313.3c17,0,34,0,51,0c1.9,0,1.9-3,0-3c-17,0-34,0-51,0C1304.8,310.3,1304.8,313.3,1306.7,313.3
				L1306.7,313.3z" style="fill:#E8E8E8;"/>
		</g>
	</g>
	<g>
		<g>
			<path d="M1357,312.2c0,10.5,0,21,0,31.4c0,1.9,3,1.9,3,0c0-10.5,0-21,0-31.4C1360,310.3,1357,310.3,1357,312.2
				L1357,312.2z" style="fill:#E8E8E8;"/>
		</g>
	</g>
	<g>
		<g>
			<path d="M1316.4,337.7c8.3-4,17.7-5.9,26.1-1c1.7,1,3.2-1.6,1.5-2.6c-9.3-5.5-19.8-3.5-29.1,1
				C1313.1,335.9,1314.7,338.5,1316.4,337.7L1316.4,337.7z" style="fill:#E8E8E8;"/>
		</g>
	</g>
	<g>
		<g>
			<path d="M1316.4,333.5c-1.8-2.2,2.8-2.9,3.4-4.1c0.5-0.9-0.2-3.7,0.1-3.6c0.9,0.2,1.9-0.4,1.9-1.4
				c-0.1-4.7,5,2.8,4.8,2.5c0.6,0.7,1.2,1.4,2.2,1.8c1.4,0.6,4.4-1,5.2-0.4c0.9,0.8,2.1,0.4,2.5-0.7c0.8-0.3,1.6-0.6,2.5-0.8
				c-0.1,1.3,1.7,2,2.6,1.1c2.7,2.1,3.1,3.8,1.1,5c-1.5,1.3,0.7,3.4,2.1,2.1c2.6-2.2,4.4-6,2-9.1c-2-2.6-5.3-2.4-7.4-0.1
				c0.9,0.4,1.7,0.7,2.6,1.1c0.2-2.2-1.1-4-3.5-4.2c-2.6-0.2-4.1,2-4.9,4.2c0.8-0.2,1.7-0.4,2.5-0.7c-1.7-1.4-2-0.8-3.9-0.9
				c-5.1-0.2-3.6-3.4-6.9-5.3c-3.3-1.9-6.5,1-6.5,4.4c0.6-0.5,1.3-1,1.9-1.4c-1.5-0.3-3.3-0.4-4.3,0.9c-1.1,1.4,0.6,2.5,0.2,3.5
				c-0.6,1.6-3.5,1.1-4.2,3.2c-0.7,2,0.7,3.8,1.9,5.2C1315.5,337.2,1317.6,335,1316.4,333.5L1316.4,333.5z" style="fill:#E8E8E8;"/>
		</g>
	</g>
	<g>
		<g>
			<path d="M1328.4,307.2c-0.6-1.3-0.9-2.6-0.6-4c0.1-0.9,0.9-3.8,2.3-3.4c1,0.3,2,2.9,2.2,3.8c0.5,1.6,0.6,3.1,0.4,4.8
				c-0.2,1.9,2.8,1.9,3,0c0.3-2.7-0.1-5.3-1.4-7.7c-1-2-2.9-4.7-5.5-3.9c-2,0.6-3.3,3.1-3.8,5c-0.6,2.4-0.3,4.8,0.8,7
				C1326.7,310.5,1329.2,309,1328.4,307.2L1328.4,307.2z" style="fill:#E8E8E8;"/>
		</g>
	</g>
	<g>
		<g>
			<path d="M1305.8,362.9c0,15.3,0,30.6,0,45.9c0,1.9,3,1.9,3,0c0-15.3,0-30.6,0-45.9
				C1308.8,360.9,1305.8,360.9,1305.8,362.9L1305.8,362.9z" style="fill:#E8E8E8;"/>
		</g>
	</g>
	<g>
		<g>
			<path d="M1307.3,361.8c15.5,0,31,0,46.5,0c1.9,0,1.9-3,0-3c-15.5,0-31,0-46.5,0
				C1305.3,358.8,1305.3,361.8,1307.3,361.8L1307.3,361.8z" style="fill:#E8E8E8;"/>
		</g>
	</g>
	<g>
		<g>
			<path d="M1352.3,360.3c0,16.1,0,32.3,0,48.4c0,1.9,3,1.9,3,0c0-16.1,0-32.3,0-48.4
				C1355.3,358.4,1352.3,358.4,1352.3,360.3L1352.3,360.3z" style="fill:#E8E8E8;"/>
		</g>
	</g>
	<g>
		<g>
			<path d="M1308.5,412.2c14.7,0,29.3,0,44,0c1.9,0,1.9-3,0-3c-14.7,0-29.3,0-44,0
				C1306.6,409.2,1306.6,412.2,1308.5,412.2L1308.5,412.2z" style="fill:#E8E8E8;"/>
		</g>
	</g>
	<g>
		<g>
			<path d="M1322.2,378.2c-0.7,5.8,3,12.1,9.2,12.8c6.5,0.7,11.3-4.3,11.1-10.6c-0.1-1.9-3.1-1.9-3,0
				c0.2,4.7-3.4,8.5-8.3,7.5c-4.5-0.9-6.4-5.5-6-9.7C1325.4,376.3,1322.4,376.3,1322.2,378.2L1322.2,378.2z" style="fill:#E8E8E8;"/>
		</g>
	</g>
	<g>
		<g>
			<path d="M1332.3,390.3c-0.2,1.4,0.7,2.5,0.3,3.8c-0.6,2-3.2,3.9-4.5,5.4c-2.2,2.6-3.8,5.2-3.9,8.7
				c-0.1,1.9,2.9,1.9,3,0c0.2-4.6,4.1-7.3,6.7-10.7c0.8-1,1.6-2.1,1.9-3.3c0.3-1.4-0.7-2.5-0.5-3.9
				C1335.5,388.4,1332.5,388.4,1332.3,390.3L1332.3,390.3z" style="fill:#E8E8E8;"/>
		</g>
	</g>
	<g>
		<g>
			<path d="M1325.4,390.2c-3.5-0.2-10.1-2.4-8.5-7.3c0.8-2.6,4.1-2.7,5.5-4.5c1.9-2.3,0.3-3.6-1.2-5.3
				c-1.4-1.6-4.3-2.2-0.4-5.7c2.2-2,5.8,0.5,7.6,2c1.1,1,1.3,2.1,2.8,2.8c1,0.5,2.3,0.7,3.4,0.3c1.8-0.8,3.8-6.1,5.7,0.5
				c0.2,0.8,1.1,1.3,1.8,1c0.1,2.1,0.2,4.1,0.2,6.2c-1.2,1.5,0.9,3.6,2.1,2.1c1.9-2.4,4.1-5.4,2.7-8.6c-1.1-2.4-3.5-3.3-5.9-2.6
				c0.6,0.3,1.2,0.7,1.8,1c-0.8-2.7-2.1-5.5-5.2-5.7c-1-0.1-1.9,0.1-2.7,0.6c0.2-0.1-1.2,1.5-1.2,1.5c-2.1,1.1-2.7-0.8-3.9-2
				c-2.1-2.3-3.8-3.6-7.2-3.1c-2.6,0.4-6.3,2.2-7.2,4.9c-1.1,3.2,1.6,4.1,2.8,6.5c1.3,0.5,1.3,1.1-0.1,1.8c-0.3,0.6-0.7,0.9-1.2,1.1
				c-0.4,0.3-1,0.5-1.4,0.9c-0.8,0.9-1.4,1.8-1.8,2.9c-2.3,7.3,5.2,11.2,11.2,11.6C1327.3,393.3,1327.3,390.3,1325.4,390.2
				L1325.4,390.2z" style="fill:#E8E8E8;"/>
		</g>
	</g>
	<g>
		<g>
			<path d="M1326.5,360c-0.1-1.5-0.6-4.2,1.2-5.1c1.9-0.9,1.6,2,1.4,3c-0.4,1.9,2.5,2.7,2.9,0.8
				c0.3-1.6,0.5-3.4-0.3-4.9c-0.8-1.4-2.3-2.2-3.8-2c-4.1,0.5-4.6,4.9-4.3,8.2C1323.6,361.9,1326.6,361.9,1326.5,360L1326.5,360z" style="fill:#E8E8E8;"/>
		</g>
	</g>
	<g>
		<g>
			<path d="M1309.5,362.6c0,14.7,0,29.4,0,44.1c0,1.9,3,1.9,3,0c0-14.7,0-29.4,0-44.1
				C1312.5,360.6,1309.5,360.6,1309.5,362.6L1309.5,362.6z" style="fill:#E8E8E8;"/>
		</g>
	</g>
	<g>
		<g>
			<path d="M1311.3,408.9c13.3,0,26.6,0,39.9,0c1.9,0,1.9-3,0-3c-13.3,0-26.6,0-39.9,0
				C1309.4,405.9,1309.4,408.9,1311.3,408.9L1311.3,408.9z" style="fill:#E8E8E8;"/>
		</g>
	</g>
	<g>
		<g>
			<path d="M1352.3,407.8c0-15.4,0-30.9,0-46.3c0-1.9-3-1.9-3,0c0,15.4,0,30.9,0,46.3
				C1349.3,409.7,1352.3,409.7,1352.3,407.8L1352.3,407.8z" style="fill:#E8E8E8;"/>
		</g>
	</g>
	<g>
		<g>
			<path d="M1312,363c13.2,0,26.3,0,39.5,0c1.9,0,1.9-3,0-3c-13.2,0-26.3,0-39.5,0C1310.1,360,1310.1,363,1312,363
				L1312,363z" style="fill:#E8E8E8;"/>
		</g>
	</g>
</g>
<g id="guy_x2F_teacher">
	<g id="leg_right_1_">
		<path d="M753.2,903.4c-6.7-5.4-15.8-6.5-23.2-2.8c-8.7,4.4-13.4,14.7-11.2,25c1.8,13.7,3.6,27.5,5.4,41.2
			c-36.5,16.7-53.9,27.6-52.4,32.6c1.8,6.1,31.4,3.5,88.9-7.6C758.2,962.3,755.7,932.9,753.2,903.4z" style="fill:#191919;"/>
		<path d="M728.8,578.8c-1.4,20.1-3.7,52.7-7.6,93.1c-4.8,50.7-6.8,101.8-13.6,152.3c-7,52.4-14.7,88.3,3,100.8
			c6.4,4.5,14.1,4.5,19.6,3.8c5.8-1.5,11.6-3.1,17.4-4.6c5.7,2.8,13.4,5.5,19.6,2.3c18.2-9.3,1-57,2.3-125.4
			c0.9-45.1,9.6-90.1,21.2-149.2c8.8-45.1,15.5-68.5,3-80C778.5,557.8,744.8,571.3,728.8,578.8z" style="fill:#FFFFFF;stroke:#161616;stroke-width:2;stroke-miterlimit:10;"/>
		<path d="M757.5,569.4c3.8,17.7,8.1,44.5,7.8,77.1c-0.5,52.6-12.8,85.8-21.7,125.3c-8.1,35.8-15.9,88-12.4,155.3
			c5.3-1,10.7-2.1,16-3.1c1.2,0.9,6.1,4.2,12.9,3.6c1-0.1,7.6-0.8,11.9-5.7c5.3-6,4.2-14.9,3.6-19.2c-2.3-18.7-2.8-37.6-4.7-56.4
			c-2-19.8-1.7-35.2-1.6-44.5c0.1-7,0.6-20.1,3.1-41.4c4.4-37.1,8.4-43.4,17.1-97.3c6.6-40.6,3.7-33.2,6.2-42.4
			c2.3-8.2,6.2-20.1,4.1-35.2c-1-7.1-2.8-11.1-5.7-14c-6-5.9-14.9-5.8-20.2-5.7C766.8,565.9,761,567.9,757.5,569.4z" style="opacity:0.14;fill:#6D6C6C;"/>
		<path d="M786,671.4c-7.5,16.6-15.4,38.4-20.2,64.7c-8.4,46.4-0.1,70-7.2,119.6c-2.6,18.3-7.5,41.3-17.1,67.3
			c3.6,0.5,7.2,1,10.9,1.6c5.4,1.9,12.2,3.3,17.1,0c8.8-5.9,5.8-23.2,3.6-43.5c0,0-2.7-25-3.1-72.5c-0.2-26.3,2.2-45.7,5.7-74
			C778.8,709.2,782.6,687.7,786,671.4z" style="opacity:0.1;fill:#6D6C6C;"/>
	</g>
	<g id="leg_left_1_">
		<path d="M879.4,895.8c-6.7-5.4-15.8-6.5-23.2-2.8c-8.7,4.4-13.4,14.7-11.2,25c1.8,13.7,3.6,27.5,5.4,41.2
			c-36.5,16.7-53.9,27.6-52.4,32.6c1.8,6.1,31.4,3.5,88.9-7.6C884.3,954.7,881.8,925.3,879.4,895.8z" style="fill:#191919;"/>
		<path d="M842.1,575.7c5.8,47.5,12,96.5,18.6,147.4c4.5,35,5.6,43.3,9.1,56.9c6,23.6,14.1,43.7,21.1,80.2
			c3.3,17,5,30.8-2.9,41.2c-5.9,7.8-17.4,14-20,11.6c-1.1-1.1-0.4-3.9,0.6-6.4c-2.4,2.3-17.6,16.6-29.7,11.6
			c-7.1-2.9-10-11.2-11.4-15.7c-14.2-43.5-16.5-87.1-16.5-87.1c-0.9-16.8-3.1-34-7.4-68.5c-3.2-25.3-9.2-61.9-22.1-106.4
			c-1.9-1.2-20.5-13.6-21.7-36.5c-0.1-1.7-0.8-19,10.1-30.7C784.3,557.8,815.1,556.7,842.1,575.7z" style="fill:#FFFFFF;stroke:#161616;stroke-width:2;stroke-miterlimit:10;"/>
		<g>
			<g>
				<path d="M761.4,587.7c-3.6,10.4-4.6,22.1,1.1,32c4.9,8.5,12.8,17.8,22.4,20.8c1.8,0.6,2.6-2.3,0.8-2.9
					c-8.8-2.7-16.2-11.6-20.6-19.4c-5.3-9.2-4.1-20-0.8-29.7C765,586.7,762.1,585.9,761.4,587.7L761.4,587.7z" style="fill:#FFFFFF;"/>
			</g>
		</g>
		<g>
			<g>
				<path d="M758.4,606.3c0.9,15.6,10.9,28.6,26.1,32.9c1.9,0.5,2.7-2.4,0.8-2.9c-13.8-3.9-23-15.7-23.9-30
					C761.3,604.4,758.3,604.4,758.4,606.3L758.4,606.3z" style="fill:#FFFFFF;"/>
			</g>
		</g>
		<path d="M802.7,562.7c2.6,7.8,6.6,20.4,11,36c12.8,45.2,34.9,123.5,36.3,217.7c0.2,15.7,0.8,95.6,8,96
			c1.7,0.1,4.5-4.3,8.3-3.3c2.6,0.7,2.7,3.1,5,4c5,1.9,13.3-6.7,17.3-13c1.4-2.2,4.6-7.2,5.3-14.3c0.4-3.2,0.1-5.5-1-12.3
			c-1.6-10.5-2.4-15.7-3-18.3c-4.3-20.3-12-39.8-18.3-67.3c-2.7-11.6-4.5-22-6.7-34c-0.7-3.8-2.6-14.9-4.7-28.7
			c-4.7-31.6-6.2-53.3-9.3-81c-1.7-15.1-4.3-36.4-8.3-62.3c-1-2.2-2.8-5.6-6-8.7c-1.1-1-4.5-4.1-13.7-7
			C818.4,564.6,811.5,562.9,802.7,562.7z" style="opacity:0.14;fill:#6D6C6C;"/>
		<path d="M867.7,773c5.5,25.6,9.2,47.5,11.7,64.7c4,28,4.2,38.2-1,49c-7.8,16.3-24,26-23,27.3c0.4,0.5,3-0.5,12-6.3
			c0.3,2.4,1,5.1,3,6c5.1,2.2,16.4-8.8,21.3-19.3c6.7-14.5,1.8-29.4-2.7-43.7C883.4,832.6,875.9,806.8,867.7,773z" style="opacity:0.2;fill:#6D6C6C;"/>
	</g>
	<g id="hand_right_1_">
		<path d="M734.7,405.7c-9.8-1.3-18.8,11.5-36.3,37c-12,17.4-20.4,32.7-25.9,43.3c-11.9-0.6-23.8-1.2-35.7-1.9
			c-11.1-0.6-22.2-1.2-33.3-1.9c-4.4-1.5-11-3.7-19.1-5.6c-13.1-3.2-40.2-8.5-41.9-3.8c-0.5,1.5,1.3,4.6,12.9,11.9
			c-0.8,2-3.7,10.4,0,20.1c0.6,1.5,3.9,9.6,11.7,13.8c10,5.3,23.8,2.4,33.9-7.5c7.8,4.7,50.1,29.4,89.9,12.5
			c13-5.5,22.1-13.9,30.2-21.3c14.7-13.5,34-31.2,34.5-55.8C756,428.7,746.6,407.3,734.7,405.7z" style="fill:#FFFFFF;stroke:#161616;stroke-width:2;stroke-miterlimit:10;"/>
		<g>
			<g>
				<path d="M541.7,474c3.9,3.9,7.7,8.1,12.1,11.4c4.3,3.2,9.2,5,14.2,6.7c1.4,0.5,2-1.7,0.6-2.2
					c-5.3-1.8-10.4-3.8-14.8-7.4c-3.8-3.1-7.1-6.7-10.5-10.1C542.3,471.4,540.7,473,541.7,474L541.7,474z" style="fill:#161616;"/>
			</g>
		</g>
		<g>
			<g>
				<path d="M589,484.3c-3.8,1.4-7.3,3.6-10,6.6c-1.9,2.1-4.7,5.4-4,8.4c0.7,3.4,4.9,3.4,7.7,3.4
					c4.5-0.1,8.8-1.4,12.7-3.7c1.2-0.7,0.1-2.7-1.1-1.9c-2.5,1.5-5.2,2.6-8.1,3.1c-2.5,0.4-9.8,1.3-8.5-3.4c1.3-4.8,7.7-8.7,12-10.3
					C590.9,486,590.3,483.8,589,484.3L589,484.3z" style="fill:#161616;"/>
			</g>
		</g>
		<g>
			<g>
				<path d="M554.1,486.5c-2.1,6.7-2.1,13.2,5.1,16.4c5.3,2.4,13,1.2,15.7-4.5c0.6-1.3-1.3-2.4-1.9-1.1
					c-2.2,4.7-8.5,5.5-12.9,3.5c-6.1-2.7-5.5-8.2-3.8-13.7C556.7,485.7,554.6,485.1,554.1,486.5L554.1,486.5z" style="fill:#161616;"/>
			</g>
		</g>
		<g>
			<g>
				<path d="M553.6,501.3c0.4,5.7,3.9,11.3,9.9,12.4c5.3,1,10.2-2.2,12.1-7c0.5-1.3-1.6-1.9-2.2-0.6
					c-1.6,4-6.1,6.4-10.4,5.2c-4.4-1.3-6.9-5.7-7.2-10C555.8,499.9,553.5,499.9,553.6,501.3L553.6,501.3z" style="fill:#161616;"/>
			</g>
		</g>
		<g>
			<g>
				<path d="M575.2,507.8c7.8-1.4,5.2,12.5-0.5,12c-1.4-0.1-1.4,2.1,0,2.3c4.8,0.4,7.4-5.5,7.7-9.5
					c0.3-4.4-3.5-7.6-7.8-6.8C573.2,505.9,573.8,508,575.2,507.8L575.2,507.8z" style="fill:#161616;"/>
			</g>
		</g>
		<g>
			<g>
				<path d="M574.6,499.7c0-0.1,0.1-0.1,0.1-0.2c-0.4,0.1-0.7,0.2-1.1,0.3c0.8,0.2,0.9,2.8,0.8,3.3
					c-0.1,1.3-0.6,2.5-1.6,3.5c-1,1,0.6,2.6,1.6,1.6c1.5-1.5,2.3-3.6,2.2-5.8c-0.1-1.6-0.6-4.4-2.5-4.8c-0.4-0.1-0.8,0-1.1,0.3
					c0,0.1-0.1,0.1-0.1,0.2C572.1,499.2,573.6,500.8,574.6,499.7L574.6,499.7z" style="fill:#161616;"/>
			</g>
		</g>
		<g>
			<g>
				<path d="M569.2,492.3c2.4,0.1,3.9,2.4,3.3,4.7c-0.4,1.4,1.8,2,2.2,0.6c1-3.7-1.5-7.4-5.4-7.5
					C567.7,490,567.7,492.3,569.2,492.3L569.2,492.3z" style="fill:#161616;"/>
			</g>
		</g>
		<path d="M749.5,421.8c-2.9,8.5-7.7,20-15.3,32.6c-7.8,12.9-16.5,27.2-33.4,39.2c-6.2,4.4-24.9,17.4-52.6,18.4
			c-26.1,0.9-45.3-9.3-52.9-13.9c-6,4.5-10.1,4.8-12.8,4.2c-2.4-0.6-3.3-1.8-7.5-3.1c-3.6-1.1-6.5-1.3-8.1-1.4
			c-5.8-0.4-11.8-0.8-13.4,1.9c-2.1,3.7,4.7,11.6,10,15.9c2.4,1.9,6.6,5.2,12.5,6.1c13.9,2.2,24.2-9.9,24.8-10.6
			c3.4,2.1,8.3,5,14.5,7.8c10.1,4.7,24.4,11.2,43.4,11.1c21.6,0,37.2-8.5,40.4-10.3c3.8-2.2,10.9-8.4,25-20.9
			c13.1-11.6,17.9-16.7,22.3-23.7c2.6-4.1,5.9-9.4,7.8-16.7C758.3,442.8,752.8,428.6,749.5,421.8z" style="opacity:0.12;fill:#6D6C6C;"/>
		<path d="M754.8,433.8c-1.9,6.6-5.2,15.9-10.9,26.2c-5.3,9.6-19.3,34.3-49,49.5c-8.8,4.5-24,12.1-45.1,11.7
			c-23.4-0.5-40.2-10.5-47.3-15.3c-4,2.5-10,5.7-17.8,7.8c-10.4,2.7-17.9,1.8-18.1,3.3c-0.2,1.5,7,4.7,14.5,4.5
			c10.5-0.3,17.9-7.2,20.6-10c6.9,5,32.7,22.6,66.5,18.1c26.1-3.5,42.6-18.2,57.1-31.2c10.8-9.7,23.3-21.2,28.1-40.4
			C755.9,448.2,755.5,439.6,754.8,433.8z" style="opacity:0.15;fill:#6D6C6C;"/>
	</g>
	<g id="torso_1_">
		<path d="M724.1,406.1c-2,2.3-5.5,7.2-8.5,30.6c-4,31.8-1.9,57,0,75.8c2.2,22.3,5.3,49.2,9.8,79.8
			c17.4,5.4,46.3,11.5,81,6c15.7-2.5,29.1-6.8,39.9-11.3c-2.3-25-2-45.2-1.3-58.5c3.4-68.7,6.5-87.8,6.5-87.8
			c2.3-13.7,4.4-22.2-0.7-29.9c-5.1-7.9-14.8-10.6-45.7-12.6C758.2,395,734.6,393.7,724.1,406.1z" style="fill:#3A3A3A;"/>
		<path d="M791.6,398.4c3.1,11,5.7,22.7,7.9,35.1c11.4,65.2,3.4,123-7.9,166.1c5.8-0.4,11.9-1.1,18.4-2.2
			c13.8-2.3,25.9-5.9,35.9-9.6c-1.4-19.9-1.8-36.9-1.8-50.4c0.1-37.7,3.4-66.5,4.8-78c1.8-14,3.7-25.7,5.3-34.2
			c0.4-2.4,0.8-6.8-1.3-11.4c-2.4-5.3-6.9-8.1-8.8-9.2c-6.5-3.9-13.1-3.9-16.7-3.9C818.8,400.4,807.4,399.9,791.6,398.4z" style="opacity:0.14;fill:#6D6C6C;"/>
		<path d="M853.4,422c-17.7,45.9-21.4,78.7-21,100.8c0.1,8.3,1,28.2-9.6,49.1c-6.5,12.7-15,21.6-21.5,27.2
			c6-0.8,12.6-2,19.7-3.9c9.1-2.4,17-5.4,23.7-8.3c-0.9-25.8-0.8-53.8,0.9-83.7C847.1,474,849.9,446.9,853.4,422z" style="opacity:0.16;fill:#6D6C6C;"/>
	</g>
	<g id="hand_left_1_">
		<path d="M839.8,406.4c12.3-5.4,29,10.4,39.8,20.5c11.8,11.1,35.7,33.6,36.9,70.4c1,30.7-14.3,52.9-21.9,62.2
			c-11.9,14.5-25.4,22.1-33.4,25.8c-0.1,3.4-0.6,8.8-2.9,14.7c-1.3,3.2-7.9,20-20.5,20.7c-1.7,0.1-7.5,0.1-14.2-6.2
			c-0.4,0-2.4-0.3-3.7-2.1c-1.2-1.7-1.3-4.2-0.1-6.2c-0.3-0.2-2.9-1.5-3.5-4.6c-0.7-3.4,1.6-5.9,1.8-6c0.1-1.7,0.5-3.9,2.1-5
			c1.8-1.2,3.7-0.2,6.6-0.4c1.9-0.2,4.6-0.9,7.8-3.7c-3.6-1-11.7-3.6-11.5-6.5c0.1-3.4,11.8-5.4,14.4-5.9c6.4-1.1,11.9-0.9,15.6-0.6
			c2.2-4,5.4-9.9,9.2-17c6.4-12,9.6-18,11.5-22.3c3.6-8,7.6-20.1,8.7-37c-4.5-4.4-11.4-10.7-20.2-17.6c-19-14.8-25.4-15.1-30.6-23.5
			C821.9,440.4,826.6,412.2,839.8,406.4z" style="fill:#FFFFFF;stroke:#161616;stroke-width:2;stroke-miterlimit:10;"/>
		<g>
			<g>
				<path d="M817.1,594.4c1.6,7.8,13.6,6,18.4,3.2c1.2-0.7,0.1-2.7-1.1-1.9c-3.5,2.1-13.9,4.4-15.1-1.8
					C819,592.4,816.8,593,817.1,594.4L817.1,594.4z" style="fill:#161616;"/>
			</g>
		</g>
		<g>
			<g>
				<path d="M818.3,606.9c6,4.3,14.8,2.3,21.1-0.6c1.3-0.6,0.2-2.5-1.1-1.9c-5.6,2.5-13.5,4.3-18.8,0.6
					C818.3,604.1,817.2,606.1,818.3,606.9L818.3,606.9z" style="fill:#161616;"/>
			</g>
		</g>
		<g>
			<g>
				<path d="M822.8,615.7c6.2,3,13.4,2.6,19.1-1.4c1.2-0.8,0.1-2.8-1.1-1.9c-5,3.5-11.3,4.1-16.8,1.4
					C822.7,613.1,821.5,615,822.8,615.7L822.8,615.7z" style="fill:#161616;"/>
			</g>
		</g>
		<path d="M835.5,410.2c-2,6.8,21.4,13.3,41.9,35.3c7.1,7.6,21.6,23.1,25,46.1c4.3,28.5-10.6,51.3-16.1,59.5
			c-10.6,16.1-23.5,25.6-31.3,30.5c0,2.8-0.4,13-8.2,21.6c-1.6,1.8-7.9,8.7-17.1,9.7c-5.3,0.6-10.1-0.9-10.3-0.3
			c-0.1,0.6,3.6,1.4,8.4,4.7c3.1,2.1,3.2,3,4.7,3.7c6.2,2.9,16-5.9,17.1-6.8c10.2-9.3,11.4-23.1,11.6-28.2c2.3-1.3,5.4-3.1,9-5.5
			c3.7-2.5,14.6-9.7,23.2-19.2c2.3-2.5,14-15.8,19.7-37.1c2-7.5,7.5-29.2-1.3-52.9c-3.9-10.3-8.9-17-17.9-28.7
			c-8-10.5-13.9-15.7-25.3-25.8c-8.2-7.3-13.1-10.7-19.7-11.1C844.4,405.4,836.6,406.5,835.5,410.2z" style="opacity:0.18;fill:#6D6C6C;"/>
		<path d="M904,456c3.4,8.4,8.3,23.7,7.6,43.2c-0.7,21.2-7.6,36.6-10.3,41.9c-12.4,25-32,38.4-41.6,44
			c7.8-2.9,19.1-8.4,29.8-18.7c31.3-30.2,26.7-72.8,26.3-75.8C914,475.6,908.6,463.9,904,456z" style="opacity:0.18;fill:#6D6C6C;"/>
	</g>
	<g id="head_1_">
		<path d="M789.4,329.4c6,20.1,8.2,31.8,16.7,50.2c4,8.6,7.8,15.4,10.5,19.9c-8.7,4.1-22.8,9.4-40.9,10.1
			c-10.7,0.4-19.9-1-27-2.6c0.7-5.5,1.1-12.4,0.6-20.2c-0.7-9.8-2.8-18.1-4.8-24.2c-9.6-1.2-19.3-2.5-28.9-3.7
			c-1.9-4.2-3.8-8.5-5.7-12.7c-2.6-0.1-5.3-0.2-7.9-0.3c2-5.8,5-14.9,8.5-26.2c6.5-21.3,6.4-24.3,9.9-29.1
			c9.7-13.1,31.4-21.5,45.7-14.4C774.6,280.3,779.6,296.7,789.4,329.4z" style="fill:#FFFFFF;stroke:#161616;stroke-width:2;stroke-miterlimit:10;"/>
		<g>
			<g>
				<path d="M702.2,347.5c5,0.1,9.9-0.3,14.8-1c1.9-0.3,1.1-3.2-0.8-2.9c-4.7,0.7-9.3,1-14,0.9
					C700.3,344.5,700.3,347.5,702.2,347.5L702.2,347.5z" style="fill:#161616;"/>
			</g>
		</g>
		<g>
			<g>
				<path d="M700.3,309.3c2.8-1.5,6.5-0.7,8.3,1.9c1.1,1.6,3.7,0.1,2.6-1.5c-2.8-4-8.1-5.3-12.4-3
					C697.1,307.6,698.6,310.2,700.3,309.3L700.3,309.3z" style="fill:#161616;"/>
			</g>
		</g>
		<g>
			<g>
				<path d="M723.9,312.8c3.6-1.1,7.5,0.1,9.6,3.3c1.1,1.6,3.7,0.1,2.6-1.5c-2.9-4.2-8.1-6.2-13-4.6
					C721.3,310.5,722,313.4,723.9,312.8L723.9,312.8z" style="fill:#161616;"/>
			</g>
		</g>
		<g>
			<g>
				<path d="M724.6,324c-0.1-1.1,0.1-2.2,0.7-3.2c0.1-0.2,0.3-0.5,0.5-0.7c-0.4-0.5-0.6-0.6-0.5-0.1
					c-0.2,0.2-0.1,1.2-0.2,1.5c-0.1,0.5-0.3,1-0.5,1.5c-0.1,0.2-0.2,0.4-0.3,0.5c0.5,0.9,0.8,1,1,0.3c0.4-0.4,0.6-1.3,0.9-1.8
					c0.3-0.6,0.6-1.2,0.9-1.8c0.8-1.5-1.1-3-2.4-1.8c-0.7,0.7-1.1,1.4-1.4,2.3c-0.5,1.9,2.4,2.7,2.9,0.8c0.1-0.5,0.3-0.7,0.6-1
					c-0.8-0.6-1.6-1.2-2.4-1.8c-0.7,1.4-1.5,2.8-2.1,4.3c-0.5,1.1-0.4,2.4,0.7,3.1c2.7,1.7,4.4-1.8,4.9-3.9c0.4-2,0.4-6.2-2.9-5.3
					c-2.6,0.8-3.6,4.6-3.5,6.9C721.7,325.9,724.7,325.9,724.6,324L724.6,324z" style="fill:#161616;"/>
			</g>
		</g>
		<path d="M716.9,295.8c0.7-4.3,2.4-11.5,7.1-18.9c1.7-2.6,5.2-8.1,10.9-11.8c10.9-7.1,27.6-6.5,39.7,2.2
			c11.9,8.5,17.8,23.7,15.2,38.9C765.6,302.8,741.2,299.3,716.9,295.8z" style="fill:#565656;"/>
		<g>
			<g>
				<path d="M677.1,296.1c37.5,4.7,74.9,9.4,112.4,14.1c5.7,0.7,5.7-8.3,0-9c-37.5-4.7-74.9-9.4-112.4-14.1
					C671.3,286.4,671.4,295.4,677.1,296.1L677.1,296.1z" style="fill:#161616;"/>
			</g>
		</g>
		<path d="M765.6,305.2c-6.6,2.4-10.5,7-14.9,12.3c-9.4,11.4-6.6,15.6-13.2,22.7c-10.5,11.3-21.2,4.6-30.6,15.7
			c-8,9.4-6.9,22.1-6.6,25c0.3,2.8,1.7,14.1,11,21.9c8.1,6.7,18.9,8.2,19.6,6.7c0.2-0.5-0.6-1.9-6.6-5.9c1.7,1.2,4.5,2.7,8,3.4
			c4.1,0.7,8,0,8-0.6c0-0.5-2.2-0.4-3.9-2.2c-1-1.1-1.4-2.3-1.7-3.4c3.3,2.1,7.4,4,11.3,2.8c10.7-3.2,12.6-26.9,13.2-34.8
			c2-25.4-5.3-39.3,3.6-48.3c0.7-0.8,4.3-4.4,8.3-3.6c5,0.9,8.8,8.6,7.2,13.7c-1.4,4.4-6.4,5.6-6.1,6.5c0.5,1,8.9-0.6,16-6.2
			c2.6-2,4.7-3.7,5.8-6.7c1.9-5.3-0.3-11.3-3.3-14.9C784.5,302.1,772.8,302.6,765.6,305.2z" style="fill:#161616;stroke:#161616;stroke-width:2;stroke-miterlimit:10;"/>
		<path d="M775.5,338c-1.6,0.2-3.9,0.2-4-0.3c-0.1-0.3,0.5-0.7,0.5-0.7c0,0-1.9,2.4-4.3,2.7c-1.1,0.1-2.1-0.2-2.8-0.6
			c4.2,8.9,8.5,19.6,12.2,32c4,13.6,6.3,25.9,7.6,36.5c4.3,0,10.4-0.5,17.4-2.7c5.7-1.8,10.2-4.2,13.6-6.3
			c-9-14.1-13.6-25.4-16.2-33.1c-1.2-3.6-3.8-12.1-5-16.3c-2.3-7.6-4.2-13.9-5.4-18.1c-0.6,0.6-1.7,1.5-3,2.4
			C784.2,334.9,780.5,337.5,775.5,338z" style="opacity:0.22;fill:#6D6C6C;"/>
		<path d="M748.6,260.7c9.7,1.9,17,9.7,18.2,18.8c1.3,10.9-6.7,18.4-7.5,19c10.4,1.3,20.7,2.5,31.1,3.8
			c0.2-2.4,0.3-5.7-0.4-9.5c-2-12.2-9.2-19.8-10.7-21.3c-2.4-2.4-10.9-10.5-23.6-11.2C752.8,260.2,750.3,260.5,748.6,260.7z" style="fill:#353535;"/>
	</g>
</g>
<g id="table">
	<path d="M528.5,698.4c0.5,5.4,0.9,10.9,1.4,16.3c169.7,0.3,339.4,0.6,509.1,0.9c1.5-5.4,3-10.9,4.5-16.3
		C871.9,699,700.2,698.7,528.5,698.4z" style="fill:#FFFFFF;"/>
	<g>
		<g>
			<path d="M535.3,699.1c1.8,0,3.6,0,5.4,0c1.9,0,1.9-3,0-3c-1.8,0-3.6,0-5.4,0C533.3,696.1,533.3,699.1,535.3,699.1
				L535.3,699.1z" style="fill:#161616;"/>
		</g>
	</g>
	<g>
		<g>
			<path d="M529.8,702c66.9,0,133.8,0,200.7,0s133.8,0,200.7,0c37.9,0,75.9,0,113.8,0c3.9,0,3.9-6,0-6
				c-66.9,0-133.8,0-200.7,0s-133.8,0-200.7,0c-37.9,0-75.9,0-113.8,0C526,696,526,702,529.8,702L529.8,702z" style="fill:#161616;"/>
		</g>
	</g>
	<g>
		<g>
			<path d="M531.2,716.8c131.7,0,263.5,0,395.2,0c37.3,0,74.5,0,111.8,0c3.9,0,3.9-6,0-6c-131.7,0-263.5,0-395.2,0
				c-37.3,0-74.5,0-111.8,0C527.3,710.8,527.3,716.8,531.2,716.8L531.2,716.8z" style="fill:#161616;"/>
		</g>
	</g>
	<g>
		<g>
			<path d="M547.1,731.4c0,83.8,0,167.6,0,251.3c0,23.9,0,47.9,0,71.8c0,3.9,6,3.9,6,0c0-83.8,0-167.6,0-251.3
				c0-23.9,0-47.9,0-71.8C553.1,727.6,547.1,727.6,547.1,731.4L547.1,731.4z" style="fill:#161616;"/>
		</g>
	</g>
	<g>
		<g>
			<path d="M964.9,727.4c0,75.8,0,151.7,0,227.5c0,21.5,0,43,0,64.6c0,3.9,6,3.9,6,0c0-75.8,0-151.7,0-227.5
				c0-21.5,0-43,0-64.6C970.9,723.5,964.9,723.5,964.9,727.4L964.9,727.4z" style="fill:#161616;"/>
		</g>
	</g>
	<g>
		<g>
			<path d="M133.8,984.5c76.3,0,152.5,0,228.8,0c76.6,0,153.2,0,229.8,0c43,0,85.9,0,128.9,0c3.9,0,3.9-6,0-6
				c-76.3,0-152.5,0-228.8,0c-76.6,0-153.2,0-229.8,0c-43,0-85.9,0-128.9,0C129.9,978.5,129.9,984.5,133.8,984.5L133.8,984.5z" style="fill:#161616;"/>
		</g>
	</g>
	<g>
		<g>
			<path d="M836.3,987.2c67.6,0,135.1,0,202.7,0c67.2,0,134.5,0,201.7,0c38.3,0,76.5,0,114.8,0c3.9,0,3.9-6,0-6
				c-67.6,0-135.1,0-202.7,0c-67.2,0-134.5,0-201.7,0c-38.3,0-76.5,0-114.8,0C832.4,981.2,832.4,987.2,836.3,987.2L836.3,987.2z" style="fill:#161616;"/>
		</g>
	</g>
	<g>
		<g>
			<path d="M548.3,731.3c0,81.9,0,163.9,0,245.8c0,23.3,0,46.6,0,70c0,3.9,6,3.9,6,0c0-81.9,0-163.9,0-245.8
				c0-23.3,0-46.6,0-70C554.3,727.4,548.3,727.4,548.3,731.3L548.3,731.3z" style="fill:#161616;"/>
		</g>
	</g>
	<g>
		<g>
			<path d="M549.6,732.6c0,81.6,0,163.2,0,244.8c0,23.2,0,46.4,0,69.7c0,3.9,6,3.9,6,0c0-81.6,0-163.2,0-244.8
				c0-23.2,0-46.4,0-69.7C555.6,728.8,549.6,728.8,549.6,732.6L549.6,732.6z" style="fill:#161616;"/>
		</g>
	</g>
	<g>
		<g>
			<path d="M964.4,725.9c0,74.2,0,148.5,0,222.7c0,21.2,0,42.4,0,63.6c0,3.9,6,3.9,6,0c0-74.2,0-148.5,0-222.7
				c0-21.2,0-42.4,0-63.6C970.4,722.1,964.4,722.1,964.4,725.9L964.4,725.9z" style="fill:#161616;"/>
		</g>
	</g>
	<g>
		<g>
			<path d="M965.8,727.3c0,73.6,0,147.2,0,220.8c0,21,0,42,0,62.9c0,3.9,6,3.9,6,0c0-73.6,0-147.2,0-220.8
				c0-21,0-42,0-62.9C971.8,723.4,965.8,723.4,965.8,727.3L965.8,727.3z" style="fill:#161616;"/>
		</g>
	</g>
	<g>
		<g>
			<path d="M534.5,717.3c5.2,6.3,9.8,12.9,13.9,19.9c2,3.3,7.2,0.3,5.2-3c-4.4-7.4-9.4-14.4-14.9-21.1
				C536.2,710.1,532,714.3,534.5,717.3L534.5,717.3z" style="fill:#161616;"/>
		</g>
	</g>
	<g>
		<g>
			<path d="M554.8,735.1c7.4-6.2,14.7-12.5,22.1-18.7c2.9-2.5-1.3-6.7-4.2-4.2c-7.4,6.2-14.7,12.5-22.1,18.7
				C547.6,733.4,551.9,737.6,554.8,735.1L554.8,735.1z" style="fill:#161616;"/>
		</g>
	</g>
	<g>
		<g>
			<path d="M947.7,720.4c6.2,3.9,12.4,7.8,18.6,11.7c3.3,2.1,6.3-3.1,3-5.2c-6.2-3.9-12.4-7.8-18.6-11.7
				C947.4,713.2,944.4,718.4,947.7,720.4L947.7,720.4z" style="fill:#161616;"/>
		</g>
	</g>
	<g>
		<g>
			<path d="M983.8,713.3c-5.2,4.2-10.2,8.7-14.9,13.4c-2.7,2.7,1.5,7,4.2,4.2c4.7-4.7,9.7-9.2,14.9-13.4
				C991,715.1,986.8,710.9,983.8,713.3L983.8,713.3z" style="fill:#161616;"/>
		</g>
	</g>
	<g>
		<g>
			<path d="M952.4,720.7c8,1.2,15.8,1.5,23.8,0.7c-0.5-1.9-1-3.7-1.5-5.6c-3.3,2.1-6.7,2.7-10.6,3.1
				c-2.2,0.3-4.4,3.3-2.1,5.1c3.1,2.5,6.2,3.3,10.1,2.3c3.7-0.9,2.2-6.7-1.6-5.8c-1.5,0.6-3,0.3-4.3-0.8c-0.7,1.7-1.4,3.4-2.1,5.1
				c4.8-0.5,9.5-1.2,13.6-4c2.3-1.5,1.7-5.9-1.5-5.6c-7.4,0.7-14.9,0.6-22.3-0.5C950.2,714.3,948.6,720.1,952.4,720.7L952.4,720.7z" style="fill:#161616;"/>
		</g>
	</g>
	<g>
		<g>
			<path d="M981.4,715c-2.8-0.6-5.6-0.2-8,1.4c-1.3,0.9-1.9,2.6-1.1,4.1c0.8,1.3,2.8,2,4.1,1.1
				c1.1-0.8,2.2-1.1,3.3-0.8c1.6,0.3,3.2-0.5,3.7-2.1C983.9,717.2,983,715.3,981.4,715L981.4,715z" style="fill:#161616;"/>
		</g>
	</g>
	<g>
		<g>
			<path d="M541.3,720.1c1.8,1.2,8.5,4.3,8.2,6.9c1-1,2-2,3-3c-0.4,0-1.6-4.6-1.9-5.4c-0.9,1.5-1.7,3-2.6,4.5
				c6-0.3,11.7-1.5,17.2-3.7c-1-1.7-1.9-3.3-2.9-5c-3.4,3.5-7,6.8-10.9,9.8c1.4,1.4,2.7,2.7,4.1,4.1c3.6-6.1-1.5-11.1-6.7-13.7
				c-0.5,1.9-1,3.7-1.5,5.6c4.1-0.2,8.2-0.3,12.3-0.1c3.9,0.2,3.8-5.8,0-6c-4.1-0.2-8.2-0.2-12.3,0.1c-2.8,0.2-4.3,4.2-1.5,5.6
				c1.8,0.9,6.2,2.8,4.6,5.5c-1.4,2.4,1.6,6,4.1,4.1c4.3-3.3,8.4-6.8,12.1-10.7c1.9-2,0-6.2-2.9-5c-5.1,2-10.2,3.2-15.6,3.5
				c-2.4,0.1-3.5,2.4-2.6,4.5c1.7,3.8,1.6,8.4,7.1,8.3c1.8,0,2.8-1.4,3-3c0.8-6-7.1-9.4-11.1-12C541.1,712.8,538.1,718,541.3,720.1
				L541.3,720.1z" style="fill:#161616;"/>
		</g>
	</g>
	<g>
		<g>
			<path d="M574.1,695.3c0-4.9,0-9.8,0-14.8c0-1.9-3-1.9-3,0c0,4.9,0,9.8,0,14.8C571.1,697.3,574.1,697.3,574.1,695.3
				L574.1,695.3z" style="fill:#E8E8E8;"/>
		</g>
	</g>
	<g>
		<g>
			<path d="M572.6,681.8c27.7,0,55.3,0,83,0c1.9,0,1.9-3,0-3c-27.7,0-55.3,0-83,0C570.7,678.8,570.7,681.8,572.6,681.8
				L572.6,681.8z" style="fill:#E8E8E8;"/>
		</g>
	</g>
	<g>
		<g>
			<path d="M654.1,680.3c0,4.7,0,9.4,0,14.1c0,1.9,3,1.9,3,0c0-4.7,0-9.4,0-14.1C657.1,678.3,654.1,678.3,654.1,680.3
				L654.1,680.3z" style="fill:#E8E8E8;"/>
		</g>
	</g>
	<g>
		<g>
			<path d="M576.4,687.4c21.2,0,42.3,0,63.5,0c1.9,0,1.9-3,0-3c-21.2,0-42.3,0-63.5,0
				C574.5,684.4,574.5,687.4,576.4,687.4L576.4,687.4z" style="fill:#E8E8E8;"/>
		</g>
	</g>
	<g>
		<g>
			<path d="M590.5,693.1c16.2,0,32.5,0,48.7,0c1.9,0,1.9-3,0-3c-16.2,0-32.5,0-48.7,0
				C588.6,690.1,588.6,693.1,590.5,693.1L590.5,693.1z" style="fill:#E8E8E8;"/>
		</g>
	</g>
	<g>
		<g>
			<path d="M593.9,680c0-3.4,0-6.7,0-10.1c0-1.9-3-1.9-3,0c0,3.4,0,6.7,0,10.1C590.9,681.9,593.9,681.9,593.9,680
				L593.9,680z" style="fill:#E8E8E8;"/>
		</g>
	</g>
	<g>
		<g>
			<path d="M594.3,670.8c24.1,0,48.2,0,72.3,0c1.9,0,1.9-3,0-3c-24.1,0-48.2,0-72.3,0
				C592.4,667.8,592.4,670.8,594.3,670.8L594.3,670.8z" style="fill:#E8E8E8;"/>
		</g>
	</g>
	<g>
		<g>
			<path d="M656.5,681.1c3.1,0,6.3,0,9.4,0c1.9,0,1.9-3,0-3c-3.1,0-6.3,0-9.4,0C654.6,678.1,654.6,681.1,656.5,681.1
				L656.5,681.1z" style="fill:#E8E8E8;"/>
		</g>
	</g>
	<g>
		<g>
			<path d="M665.1,669.6c0,3.2,0,6.5,0,9.7c0,1.9,3,1.9,3,0c0-3.2,0-6.5,0-9.7C668.1,667.6,665.1,667.6,665.1,669.6
				L665.1,669.6z" style="fill:#E8E8E8;"/>
		</g>
	</g>
	<g>
		<g>
			<path d="M608.8,675.8c5.8,0,11.5,0,17.3,0c1.9,0,1.9-3,0-3c-5.8,0-11.5,0-17.3,0
				C606.8,672.8,606.8,675.8,608.8,675.8L608.8,675.8z" style="fill:#E8E8E8;"/>
		</g>
	</g>
	<g>
		<g>
			<path d="M638.6,678.3c5.1,0,10.3,0,15.4,0c1.9,0,1.9-3,0-3c-5.1,0-10.3,0-15.4,0
				C636.7,675.3,636.7,678.3,638.6,678.3L638.6,678.3z" style="fill:#E8E8E8;"/>
		</g>
	</g>
	<g>
		<g>
			<path d="M610.7,666.4c-2.4-2.3-2.9-5.8-2.7-9c0.4-5.3,5.2-5.5,9.2-3.9c1.8,0.7,2.6-2.2,0.8-2.9
				c-4.5-1.8-10.4-1.7-12.4,3.6c-1.7,4.5-0.5,11,3,14.3C610,669.9,612.1,667.7,610.7,666.4L610.7,666.4z" style="fill:#E8E8E8;"/>
		</g>
	</g>
	<g>
		<g>
			<path d="M616.7,652c9.4-4.2,13.3,11.6,5.2,15.6c-1.7,0.9-0.2,3.4,1.5,2.6c11.6-5.8,4.8-26.6-8.2-20.8
				C613.4,650.2,615,652.8,616.7,652L616.7,652z" style="fill:#E8E8E8;"/>
		</g>
	</g>
	<g>
		<g>
			<path d="M617,651.2c-0.5-3.2-1.7-6.1-3.6-8.7c-1.1-1.6-3.7-0.1-2.6,1.5c1.7,2.4,2.8,5,3.3,8
				C614.4,653.9,617.3,653.1,617,651.2L617,651.2z" style="fill:#E8E8E8;"/>
		</g>
	</g>
	<g>
		<g>
			<path d="M615.6,646.1c0.3-0.8,0.7-1.5,1.2-2.2c0.2-0.3,0.5-0.7,0.8-1c0.1-0.2,0.3-0.3,0.5-0.5c-0.5-1-0.8-1.2-1-0.7
				c-0.5,0.5-1,1.8-1.3,2.5c-0.5,0.9-1.1,1.7-1.7,2.5c-1.1,1.6,1.5,3.1,2.6,1.5c1.1-1.5,2.1-3.1,2.9-4.8c0.7-1.4,1.1-3.2-0.7-3.9
				c-3-1.1-5.3,3.6-6.1,5.7C612,647.1,614.9,647.9,615.6,646.1L615.6,646.1z" style="fill:#E8E8E8;"/>
		</g>
	</g>
</g>
<g id="chair">
	<path d="M1107,847.4c0.4,4.7,0.8,9.5,1.2,14.2c46.1-0.4,92.2-0.8,138.3-1.2c-0.5-4.5-1-9-1.5-13.4
		C1198.9,847.2,1153,847.3,1107,847.4z" style="fill:#FFFFFF;"/>
	<g>
		<g>
			<path d="M1107.9,863.2c46.1,0,92.1,0,138.2,0c3.9,0,3.9-6,0-6c-46.1,0-92.1,0-138.2,0
				C1104.1,857.2,1104,863.2,1107.9,863.2L1107.9,863.2z" style="fill:#161616;"/>
		</g>
	</g>
	<g>
		<g>
			<path d="M1108.8,849.5c45.2,0,90.4,0,135.6,0c3.9,0,3.9-6,0-6c-45.2,0-90.4,0-135.6,0
				C1104.9,843.5,1104.9,849.5,1108.8,849.5L1108.8,849.5z" style="fill:#161616;"/>
		</g>
	</g>
	<g>
		<g>
			<path d="M1104.1,847.4c0,3.4,0,6.8,0,10.2c0,3.9,6,3.9,6,0c0-3.4,0-6.8,0-10.2
				C1110.1,843.5,1104.1,843.5,1104.1,847.4L1104.1,847.4z" style="fill:#161616;"/>
		</g>
	</g>
	<g>
		<g>
			<path d="M1243.1,847.4c0,4.5,0,9.1,0,13.6c0,3.9,6,3.9,6,0c0-4.5,0-9.1,0-13.6
				C1249.1,843.5,1243.1,843.5,1243.1,847.4L1243.1,847.4z" style="fill:#161616;"/>
		</g>
	</g>
	<g>
		<g>
			<path d="M1175.7,861.9c0,57.4,0,114.8,0,172.3c0,3.9,6,3.9,6,0c0-57.4,0-114.8,0-172.3
				C1181.7,858,1175.7,858,1175.7,861.9L1175.7,861.9z" style="fill:#161616;"/>
		</g>
	</g>
	<g>
		<g>
			<path d="M1175.5,1033.3c-10.3,6.1-20.6,12.2-31,18.3c-3.3,2-0.3,7.2,3,5.2c10.3-6.1,20.6-12.2,31-18.3
				C1181.9,1036.5,1178.8,1031.3,1175.5,1033.3L1175.5,1033.3z" style="fill:#161616;"/>
		</g>
	</g>
	<g>
		<g>
			<path d="M1177.2,1037.6c11.7,6.5,23.3,13.1,35,19.6c3.4,1.9,6.4-3.3,3-5.2c-11.7-6.5-23.3-13.1-35-19.6
				C1176.8,1030.5,1173.8,1035.7,1177.2,1037.6L1177.2,1037.6z" style="fill:#161616;"/>
		</g>
	</g>
	<g>
		<g>
			<path d="M1146.3,1059c22.2-0.2,44.3-0.9,66.5-2c3.8-0.2,3.9-6.2,0-6c-22.1,1.1-44.3,1.8-66.5,2
				C1142.4,1053,1142.4,1059,1146.3,1059L1146.3,1059z" style="fill:#161616;"/>
		</g>
	</g>
	<g>
		<g>
			<path d="M1149.6,864.1c9,12.8,17.2,26.2,24.6,40c1.8,3.4,7,0.4,5.2-3c-7.4-13.8-15.6-27.2-24.6-40
				C1152.6,857.9,1147.4,860.9,1149.6,864.1L1149.6,864.1z" style="fill:#161616;"/>
		</g>
	</g>
	<g>
		<g>
			<path d="M1209.7,859.8c-13.1,12.5-24.3,26.7-33.4,42.3c-2,3.3,3.2,6.4,5.2,3c8.9-15.2,19.8-28.9,32.5-41
				C1216.8,861.4,1212.5,857.1,1209.7,859.8L1209.7,859.8z" style="fill:#161616;"/>
		</g>
	</g>
</g>
<g id="girl_x2F_student">
	<g id="leg_right">
		<path d="M965.3,977.4c-0.8,14.3-1.5,28.6-2.3,42.9c-38.2,16.6-56.6,27.5-55.1,32.5c1.7,6,31.1,3.9,88-6.1
			c0.4-24.5,0.8-49,1.1-73.5C986.5,974.6,975.9,976,965.3,977.4z" style="fill:#161616;"/>
		<path d="M1083.9,745.7c-8.5,7.6-20.6,18.6-34.7,32.2c-33.6,32.6-58.3,56.5-75,81.2c-13.8,20.5-34.3,59.5-35.9,123.3
			c13.8,3.8,31.2,7,51.4,6.8c6.8-0.1,13.3-0.5,19.2-1.2c-2.6-14.5-4.7-37.2,0.6-63.8c3.7-18.7,9.9-33.7,15.5-44.6
			c45-20,75.4-44.5,94.8-63.2c19.6-18.9,41.9-40.5,35.9-55.8C1150.2,746.1,1120.9,740.5,1083.9,745.7z" style="fill:#686868;"/>
		<path d="M1131.2,745.8c-15.1,20.1-33.2,41.9-54.9,64.1c-27.2,27.9-54.1,50.4-78.2,68.3
			c-8.4,36.9-16.8,73.8-25.2,110.6c3.6,0.6,7.7,1.1,12.2,1.1c9.1,0.2,16.9-1.1,22.9-2.7c-1.9-12.6-3.2-29.9-0.8-50
			c3-24.8,10.6-44.3,16.8-57.2c22.6-10.4,40.5-21,53.4-29.4c0,0,40.4-26.2,71.7-66.4c0.7-0.9,3.1-4,5-8.8c1.5-3.9,3.4-8.7,1.9-13.7
			c-1.4-4.5-4.8-7-8.4-9.5C1144.8,750.3,1139.3,747,1131.2,745.8z" style="opacity:0.18;fill:#6D6C6C;"/>
		<path d="M1023.2,880.5c-4.3,8-8.5,16.4-12.6,25.2c-13.8,29.7-23.4,58.1-30.1,83.9c9.2-0.4,18.3-0.8,27.5-1.1
			c-2.1-12.1-3.7-28.4-1.9-47.3C1008.6,914.5,1016.7,893.7,1023.2,880.5z" style="opacity:0.16;fill:#6D6C6C;"/>
	</g>
	<g id="leg_left">
		<path d="M1027,991.2c4.6,14.3,9.2,28.6,13.8,42.9c-34,20.4-50.1,32.7-48.2,36.8c2.3,5,31.6-2.4,88-22.2
			c-7.8-22.7-15.6-45.4-23.4-68.1C1047.1,984,1037,987.6,1027,991.2z" style="fill:#161616;"/>
		<path d="M1191.9,765.1c7.1,36.1-3.6,56.4-8.7,64.2c-10.2,15.6-23.8,20.4-63.5,40.1c-15.5,7.7-39.1,19.7-68,35.6
			c2,12.7,5.2,27.3,10.3,43.2c4.8,15,10.4,28.1,15.8,39.1c-5.3,5.1-16,14.1-32.3,19.3c-17.6,5.7-32.7,4-40.1,2.7
			c-15.7-31-19.7-58.2-20.8-74.8c-1.3-20-2.8-42.7,8.9-65.1c9-17.2,17.7-18.8,54.1-46.6c54.7-41.7,60.2-57.3,88.4-63.1
			C1159.1,755,1179.6,760.5,1191.9,765.1z" style="fill:#686868;"/>
		<path d="M1154.5,758.4c0.5,11.6-0.4,29.8-9.7,48.4c-7.8,15.7-18.2,26.9-52.5,50.1c-30.5,20.6-54.8,36.5-70.5,46.7
			c10,33.5,20,67,30,100.5c3-1,6.6-2.5,10.3-4.6c6.8-3.9,11.6-8.6,14.7-12.2c-4.4-9.4-8.8-19.9-12.7-31.4
			c-6.4-18.4-10.4-35.6-12.9-50.5c24.8-13.8,42.2-22.8,52.4-27.9c15.2-7.6,22.7-11.4,30.4-15.1c2.6-1.2,8.4-3.9,16-7.9
			c8.5-4.4,12.7-6.5,16.5-9.1c3.1-2.1,10.9-7.6,17.2-16.7c9-13,9.8-26.6,10.4-36.5c0.4-6.4,0.3-15.7-2.1-26.6
			c-5.2-2.2-12.2-4.6-20.6-6C1164.9,758.4,1159.2,758.2,1154.5,758.4z" style="opacity:0.22;fill:#424242;"/>
		<path d="M1194,785.1c-1.6,5.3-4.5,13-9.6,21.3c-15.7,25.2-39.7,35.2-56.5,43.6c-19.9,10-46.7,26.5-76.5,55
			c8.4-4.7,18.7-10.3,30.7-16.7c21.2-11.3,31.7-16.9,42.6-22.1c8.5-4,18.2-8.3,32.7-16c10.4-5.5,16.1-8.9,21.5-15.2
			c6.1-7.1,8.8-14.2,10.6-19C1191.7,810,1194.8,799.3,1194,785.1z" style="opacity:0.11;fill:#424242;"/>
		<path d="M1051,906c0.1,8.4,0.7,17.4,1.8,26.9c2.8,24.3,8.7,45.2,15,62.1c1.8-1,3.9-2.4,6.1-4.3
			c1.4-1.2,2.6-2.4,3.5-3.5c-4.2-8.7-8.3-18.4-12.2-28.9C1058.3,939.3,1053.9,921.6,1051,906z" style="opacity:0.17;fill:#424242;"/>
	</g>
	<g id="hand_right">
		<path d="M1126,569.3c-12.5,4.2-14.7,19.1-23.1,36.1c0,0-13.2,27-42.1,49.2c-10.5,8.1-33.2,22.4-71.1,24.9
			c-3.7-1.5-9.4-3.5-16.6-4.7c-10.3-1.7-24.7-4.2-34.4,4.1c-4.4,3.8-9.3,11-7.1,15.4c2.7,5.4,14.7,3.3,34.4,2.4
			c27.3-1.2,26,1.8,45,0.6c17-1.1,43.8-2.7,71.7-19c26.7-15.5,40.5-36.2,43.8-41.5c6.4-10,9.3-18.1,15.2-34.4
			c7.8-21.4,6.5-26.2,4.3-29C1142.2,568.2,1133,566.9,1126,569.3z" style="fill:#FFFFFF;stroke:#161616;stroke-width:2;stroke-miterlimit:10;"/>
		<g>
			<g>
				<path d="M977.8,682.6c-6.3,1.2-15.4,1.5-20,6.7c-2.6,3-2.2,8.3,2.6,8.3c1.4,0,1.5-2.3,0-2.3
					c-2.4-2.5-2.2-4.5,0.8-5.9c1-0.7,2.1-1.2,3.3-1.7c1.3-0.5,2.6-0.8,3.9-1.1c3.3-0.7,6.6-1.3,10-1.9
					C979.8,684.5,979.2,682.4,977.8,682.6L977.8,682.6z" style="fill:#161616;"/>
			</g>
		</g>
		<g>
			<g>
				<path d="M930.6,691.9c5.9,7.4,15.1-1.2,22.2,0.7c1.4,0.4,2-1.8,0.6-2.2c-3.1-0.8-5.8-0.4-8.9,0.6
					c-4.1,1.3-9.1,3.5-12.4-0.7C931.3,689.2,929.7,690.8,930.6,691.9L930.6,691.9z" style="fill:#161616;"/>
			</g>
		</g>
		<g>
			<g>
				<path d="M934.2,682.8c0.2,3,2.2,4.2,5.1,4.2c6.5,0,12.2-2.6,18.7-0.5c1.4,0.4,2-1.7,0.6-2.2
					c-3.3-1.1-6.5-1.2-9.9-0.9c-2.4,0.2-12,2.9-12.2-0.7C936.3,681.4,934.1,681.4,934.2,682.8L934.2,682.8z" style="fill:#161616;"/>
			</g>
		</g>
		<g>
			<g>
				<path d="M944,676.6c1,2.4,2.7,3.5,5.3,3.9c5.1,0.7,9.5,0.9,14.2,3c1.3,0.6,2.5-1.4,1.1-1.9c-2.6-1.1-5.2-2.1-8-2.6
					c-3.2-0.6-9.1,0.4-10.5-3C945.6,674.7,943.4,675.3,944,676.6L944,676.6z" style="fill:#161616;"/>
			</g>
		</g>
		<path d="M1138.1,569.6c-5.7,1.4-4,16.7-7,30.9c-5,22.9-21.3,37.2-39.3,53c-12.2,10.7-26.5,23.3-48.3,28.9
			c-7.5,1.9-19.9,4-33.2,4.7c-18,0.9-26.9,1.4-27.5,1.3c-3-0.3-10.3-1.1-18.1,2.3c-1.6,0.7-6,2.6-5.7,4c0.4,2.1,10.8,1.5,34.2,1.3
			c17.3-0.1,15.5,0.2,20.8,0c10-0.4,27.4-1,47-8.1c27.9-10,45.1-27.7,53-35.9c7.6-8,11.8-14.2,13.1-16.1c6.2-9.3,9.1-17.6,14.8-33.9
			c6.6-19,6.6-24,4-27.9C1144.1,571.8,1140.8,568.9,1138.1,569.6z" style="opacity:0.16;fill:#6D6C6C;"/>
		<path d="M933.3,695.1c0.7-1.8,3.7-9.2,11.7-13.1c12-5.7,23.7,2,24.2,2.3c-2.6,1.4-4.8,2.4-6.4,3
			c-2.5,1.1-3.5,1.3-4.4,2.3c-1.5,1.9-1.1,4.7-0.7,6.4c-3.2,0.7-7.4,1.2-12.4,1C940.5,696.9,936.4,696,933.3,695.1z" style="opacity:0.13;fill:#6D6C6C;"/>
		<path d="M1145.8,586c-4.2,14-13.4,37.6-33.6,60.4c-27.5,31.1-59.8,43.2-74.5,47.7c11.3-2,53.3-10.9,82.9-49.3
			C1138.1,622,1143.7,598.8,1145.8,586z" style="opacity:0.14;fill:#6D6C6C;"/>
	</g>
	<g id="torso">
		<path d="M1122.6,570.1c-6.3,6.9-10.8,16-13.7,49.6c-4.3,49.1,2.5,60.4-5.1,84.7c-3.5,11.1-10.7,27.2-27.4,44.5
			c11.8,7.6,30.9,18,56.5,24c25.3,5.9,46.8,5,60.8,3.4c18-55.3,16.5-100,12.8-127.5c-3.5-26.2-11.4-86.5-42.8-94.1
			C1148.8,551,1131.9,560,1122.6,570.1z" style="fill:#FFFFFF;stroke:#161616;stroke-width:2;stroke-miterlimit:10;"/>
		<path d="M1155.7,554.9c-0.5,4.1-1.2,10.2-1.9,17.5c-4.7,48.9,0.8,57.8-2.8,86.6c-2,16.4-6.2,47.1-27.8,75.7
			c-9,11.9-18.5,20.2-25.3,25.3c10.9,5.5,27.5,12.4,48.7,15.6c19,2.8,35.1,1.7,46.5,0c3.2-9.2,7-21.7,10-36.7
			c5.6-27.8,6-51.5,5.3-67.9c-1.3-31.7-4.2-99.7-39-113.6C1164,555.3,1159.1,554.9,1155.7,554.9z" style="opacity:0.12;fill:#6D6C6C;"/>
		<path d="M1207.7,698.5c-1.2-0.2-4,12.2-8.1,23.4c-5.2,14.5-15,34-35.3,55.1c9.8-0.5,19.7-0.9,29.5-1.4
			c3.3-10.6,7.5-26.4,10.9-45.9C1206.9,716.6,1209.2,698.8,1207.7,698.5z" style="opacity:0.24;fill:#6D6C6C;"/>
	</g>
	<g id="hand_left">
		<path d="M1182,568.8c11.3,2.2,16.1,20.1,20.1,35.8c4,15.8,11.7,48,0.9,90.4c-4.5,17.5-8.5,33.8-22.4,50.3
			c-18.1,21.6-41.2,30-52,33.1c-12,8.3-18.2,12.5-21.7,14.7c-2.5,1.6-4,2.5-6.7,4.4c-3.9,2.8-4.6,3.7-6.5,4.5c-2,0.8-5.2,1.4-10-0.1
			c-0.4,0.1-3.5,0.5-5.8-1.8c-1.4-1.4-1.7-3-1.7-3.7c-0.3,0-2.2-0.2-3.5-1.8c-1.2-1.5-1.3-3.6-0.4-5.4c-0.4-0.8-0.8-1.9-0.8-3.3
			c-0.5-7,7.8-12.6,12.4-15.8c4.9-3.4,14.6-8.8,29.6-10.2c8.1-4.3,20.2-12,30.9-24.9c3.4-4,26.1-32.2,24.3-70.1
			c-0.7-15.9-6.4-45.5-9.6-73.1c-0.2-2-0.8-7.4,2.1-12.6C1165.4,572.1,1175,567.5,1182,568.8z" style="fill:#FFFFFF;stroke:#161616;stroke-width:2;stroke-miterlimit:10;"/>
		<g>
			<g>
				<path d="M1072.6,789.9c1.4,0,1.5-2.3,0-2.3C1071.2,787.6,1071.2,789.9,1072.6,789.9L1072.6,789.9z" style="fill:#161616;"/>
			</g>
		</g>
		<g>
			<g>
				<path d="M1071.5,788.7c0,0.2,0,0.4,0,0.7c0.1,1.2,1.4,1.5,2.1,0.6c4-5.3,9.4-9.2,15.7-11.2
					c1.4-0.4,0.8-2.6-0.6-2.2c-6.9,2.2-12.7,6.4-17.1,12.2c0.7,0.2,1.4,0.4,2.1,0.6c0-0.2,0-0.4,0-0.7
					C1073.7,787.3,1071.4,787.3,1071.5,788.7L1071.5,788.7z" style="fill:#161616;"/>
			</g>
		</g>
		<g>
			<g>
				<path d="M1077.1,796.8c5.1-5.8,11.4-10.2,18.6-13.1c1.3-0.5,0.8-2.7-0.6-2.2c-7.6,3-14.2,7.5-19.6,13.6
					C1074.6,796.3,1076.2,797.9,1077.1,796.8L1077.1,796.8z" style="fill:#161616;"/>
			</g>
		</g>
		<g>
			<g>
				<path d="M1084.6,802.2c5.2-5.9,11.2-10.8,18-14.8c1.2-0.7,0.1-2.7-1.1-1.9c-6.9,4.1-13.1,9.1-18.4,15.2
					C1082.1,801.7,1083.7,803.3,1084.6,802.2L1084.6,802.2z" style="fill:#161616;"/>
			</g>
		</g>
		<path d="M1177.6,572.6c-3.8,5.5,2.4,15.2,5.9,22.4c5.1,10.6,5.9,22.1,7.5,45.1c2.9,41.7-16.5,77.4-17.9,79.9
			c-17.7,31.5-45.2,50.4-53.8,56.2c-14.6,9.8-35.3,20.5-33.6,24.6c0.6,1.5,3.9,1.7,5.3,1.6c4.8-0.2,6.8-3.9,13.5-8.6
			c3.5-2.5,3.4-1.7,9.4-5.3c3.5-2.1,8.5-5.3,14.4-9.8c13.4-3.6,23.3-9.1,29.5-13.1c9-5.8,26.3-19.1,36.9-42.3
			c3.6-7.9,5-14.2,7.8-26.7c2.9-13.1,7.5-34.6,4.9-62c-1.2-12.4-3.3-20.7-6.2-31.6c-4.5-17.5-8.6-32.6-16.4-33.6
			C1182.2,569,1179.1,570.5,1177.6,572.6z" style="opacity:0.13;fill:#6D6C6C;"/>
		<path d="M1206.1,627.3c-0.9,0-0.7,10.5-5,38.4c-3.9,25-5.9,37.8-11.4,49.5c-8,17-18.9,27.7-24.2,32.8
			c-15.1,14.6-24.2,15.6-47.3,32.6c-12.1,8.9-21.1,17-26.4,22c12-8,23.9-16,35.9-23.9c11-3.2,33.6-11.6,51.8-33.1
			c12.5-14.8,17.4-29.3,21.2-40.6C1213.7,664.7,1207.7,627.3,1206.1,627.3z" style="opacity:0.16;fill:#6D6C6C;"/>
	</g>
	<g id="head">
		<path d="M1137.1,525.2c-4.5,3.1-5.3,9.1-6,15.7c-0.7,6.7-0.8,18.4,5.3,32.9c3.8,0,8.5-0.3,13.7-1.3
			c4.1-0.8,7.7-1.9,10.7-3c-0.4-13.3-0.7-26.6-1.1-39.9C1151.3,523.4,1142.5,521.5,1137.1,525.2z" style="fill:#FFFFFF;stroke:#161616;stroke-width:2;stroke-miterlimit:10;"/>
		<path d="M1113.3,458.5c-7,4-10,10.7-15.9,23.7c-6.6,14.8-11.2,27.6-13,37c-0.3,1.4,0.4,2.8,1.7,3.4
			c1.7,0.8,4.7,1.1,6.3,1.5c0,3.9,0.5,10.6,4,17.8c6.4,13.1,18.2,18.4,21.7,19.8c11.1-1.9,19.3-5.7,24.2-8.6
			c4.5-2.5,10.3-5.9,16-12.5c5.1-6,7.8-12,9.2-16c2.1,0,5.3-0.2,8.6-2c6.8-3.7,12.6-13.4,9-19.3c-2.7-4.3-10.1-6.1-17.7-3.3
			c0.1-3.2,0-7.6-1.1-12.8c-0.3-1.3-2.4-10.8-7.2-17.5C1149.9,456.8,1127.5,450.4,1113.3,458.5z" style="fill:#FFFFFF;stroke:#161616;stroke-width:2;stroke-miterlimit:10;"/>
		<path d="M1088.1,503.8c-2.5-3.9-8-13.7-7.2-26.7c0.3-4.4,0.9-12.8,7-20.7c7.4-9.6,17.7-12.1,20.7-12.7
			c1.4-2.3,3.8-5.7,7.8-8.5c1.6-1.1,6-3.8,16.8-4.4c5.7-0.3,14.4-0.1,24.8,2.9c8.1,2.4,13.5,5.8,16.8,8.5
			c12.7,10,11.7,17.9,27.8,34.1c3.7,3.7,6.3,5,11.9,10.5c5.9,5.7,10.6,11.2,13.2,14.5c5.9,7.5,17,21.7,19.1,40.9
			c0.7,6.5,2.7,24.8-8.7,38.8c-15.5,19.1-50.5,20.6-71.8,5.4c-4-2.8-20.6-14.8-19.7-34.1c0.8-17.4,15.3-27.8,17.3-29.3
			c1.7,0.7,5.2,1.8,8.6,0.6c7.1-2.6,10.1-13.5,6.4-19c-1.5-2.2-3.9-3.1-4.6-3.3c-5.8-2-11.2,2.3-11.6,2.6
			c-7.8-5.7-13.7-11.2-17.8-15.5c-5.6-5.7-8.4-9.5-9.4-10.9c-3.1-4.4-5.4-8.4-6.9-11.4c-4.6,1.1-10.6,3.2-16.9,7.3
			c-1.5,0.9-6.5,4.3-11.7,10.2c-0.6,0.7-3.5,4-6.6,9C1091.1,496.9,1089.3,500.7,1088.1,503.8z" style="fill:#3F3F3F;"/>
		<g>
			<g>
				<path d="M1108.5,512.7C1108.5,512.6,1108.5,512.6,1108.5,512.7c0,0.1,0.1,0.3,0.1,0.5c0,0,0,0.1,0,0.1
					c-0.1,0.2-0.2,0.3-0.3,0.5c0.2-0.2,0-0.1-0.4,0.2c-0.2-0.1-0.4-0.1-0.6-0.2c-0.1-0.1-0.2-0.1-0.2-0.2c-0.1-0.2-0.1-0.4-0.2-0.6
					c0,0,0-0.1,0-0.1c0.1-0.2,0.2-0.3,0.3-0.5c0.2,0,0.4-0.1,0.6-0.1c0.3,0.3,0.5,0.5,0.8,0.8c0,0.1,0,0.2,0,0.3
					c-0.5,0.1-1,0.3-1.5,0.4c0,0-0.1-0.1-0.1-0.1c-0.1-0.2-0.2-0.3-0.3-0.5c0.1-0.3,0.3-0.6,0.4-0.8c0.2-0.1,0.4-0.1,0.6-0.2
					c0,0-0.1,0-0.1,0c-0.6,0.1-1.1,0.5-1.1,1.1c0,0.6,0.5,1.2,1.1,1.1c0.6-0.1,1.2-0.4,1.3-1.1c0.2-0.6-0.1-1.3-0.7-1.6
					c-0.6-0.3-1.2-0.1-1.5,0.4c-0.6,0.8-0.2,2.1,0.8,2.2c0.9,0.1,1.7-0.6,1.7-1.5c0-0.9-0.9-1.5-1.8-1.3c-0.9,0.3-1.3,1.2-0.9,2.1
					c0.3,0.6,1.1,0.7,1.5,0.4C1108.7,513.9,1108.7,513.2,1108.5,512.7L1108.5,512.7z" style="fill:#161616;"/>
			</g>
		</g>
		<g>
			<g>
				<path d="M1117.3,510.3c0.2,1-0.2,0.9-1.1-0.3c0.2-0.1,0.3-0.2,0.5-0.3c0.4,0,0.7,0.2,0.9,0.7
					c0.1-0.6-0.6-1.1-1.1-1.1c-0.7,0-1.1,0.5-1.1,1.1c-0.1,0.9,0.8,1.6,1.6,1.5c1,0,1.6-1,1.3-1.9c-0.3-0.9-1.3-1.4-2.2-0.9
					c-0.9,0.5-1,1.4-0.6,2.3c0.2,0.6,1.1,0.7,1.5,0.4C1117.5,511.5,1117.6,510.9,1117.3,510.3L1117.3,510.3z" style="fill:#161616;"/>
			</g>
		</g>
		<g>
			<g>
				<path d="M1114.5,516.9c0.6,0,0.7,0.2,0.3,0.7c0,0.4-0.1,0.6-0.4,0.6c-0.1-0.4-0.1-0.9-0.2-1.3
					c0.3-0.1,0.5-0.1,0.8,0.1c-1-1.1-2.6,0.5-1.6,1.6c0.7,0.8,2,0.6,2.5-0.3c0.5-0.9,0-2-0.9-2.3c-1-0.3-2,0.4-2.1,1.4
					c0,1.1,1.1,1.9,2.1,1.7C1116.5,518.7,1115.9,516.5,1114.5,516.9L1114.5,516.9z" style="fill:#161616;"/>
			</g>
		</g>
		<g>
			<g>
				<path d="M1096,538.7c6.2-1.1,11.6-4.7,15.1-10c0.8-1.2-1.1-2.3-1.9-1.1c-3.2,4.8-8,7.9-13.7,9
					C1094,536.8,1094.6,538.9,1096,538.7L1096,538.7z" style="fill:#161616;"/>
			</g>
		</g>
		<path d="M1130,469.4c1.8,3.6,4.1,8.4,6.7,14.1c8,17.4,8.9,22.2,9.2,26.4c0.4,6.3-0.7,11.1-1.6,14.5
			c-4.6,18.6-18.1,31-24.8,36.4c3.3-0.4,7.3-1.1,11.7-2.6c6.8-2.3,12.1-5.4,15.7-8c-0.3,3.1-0.3,7.9,1.5,13.3
			c2,6.4,5.6,10.4,8.6,14.2c2.3,2.9,6.4,7.5,12.9,11.2c6.3,3.7,12.2,5,15.8,5.6c8.4,1.9,15.4,1.7,20.1,1.3
			c6.5-0.6,16.8-1.5,26.4-8.9c2.4-1.9,7.9-6.2,11.2-13.8c0.8-1.8,2-5.2,2.6-14.2c0.7-10.6,1.2-18-1.3-27.4
			c-2.6-9.7-7.3-17.2-11.9-22.7c-8,21.5-27.3,33.9-44.7,31.3c-13.6-2.1-21.8-12.8-24.2-16.1c5.3,1.2,10.7-0.4,13.8-4.3
			c3.7-4.4,4.8-12.3,0-16.5c-3.8-3.3-10.1-3.4-14.8,0.3c-5.7-4.1-12.2-9.5-18.8-16.5C1138.2,480.9,1133.6,474.8,1130,469.4z" style="opacity:0.1;fill:#6D6C6C;"/>
		<g>
			<g>
				<path d="M1106.9,501.9c-0.6-1-0.7-2.5,0.3-3.3c-0.3,0.1-0.5,0.2-0.8,0.3c0.1,0,0.2,0,0.3,0
					c-0.3-0.1-0.5-0.2-0.8-0.3c1,0.8,0.2,3.9-0.2,4.8c0.2-0.2,0.4-0.3,0.7-0.5c-0.1,0-0.2,0.1-0.2,0.1c0.3,0,0.6,0.1,0.9,0.1
					c-0.6-0.3-0.5-1.9-0.4-2.3c0.1-0.9,0.3-1.7,0.7-2.4c-0.5,0.1-1,0.3-1.5,0.4c0.5,0.4,0.6,1.2,0.5,1.8c0,0.3-0.1,0.6-0.2,0.8
					c-0.1,0.5-0.3,0.5,0.2,0.6c0.2,0.2,0.4,0.3,0.7,0.5c0-0.1-0.1-0.1-0.1-0.2c-0.9-1.1-2.8,0-1.9,1.1c0.5,0.6,1.2,1,2,0.7
					c0.9-0.3,1.2-1.2,1.4-2c0.5-2,0.5-4-1.3-5.3c-0.5-0.4-1.3-0.1-1.5,0.4c-1,2-1.6,5.1-0.3,7.1c0.5,0.8,1.6,1.2,2.4,0.6
					c0.9-0.7,1-2.5,1.1-3.5c0.2-1.5-0.1-5.8-2.7-4.5c-2.1,1.1-1.9,4.5-0.9,6.2C1105.7,504.3,1107.7,503.1,1106.9,501.9L1106.9,501.9
					z" style="fill:#161616;"/>
			</g>
		</g>
		<g>
			<g>
				<path d="M1102.3,491.7c5.3-0.9,9.8,2,13.9,5.1c1.2,0.9,2.3-1.1,1.1-1.9c-4.6-3.5-9.6-6.2-15.6-5.3
					C1100.3,489.7,1100.9,491.9,1102.3,491.7L1102.3,491.7z" style="fill:#161616;"/>
			</g>
		</g>
		<g>
			<g>
				<path d="M1108.3,527.7c1.1,0.7,2.1,1.6,3,2.6c1,1.1,2.6-0.5,1.6-1.6c-1-1.1-2.2-2.1-3.5-3
					C1108.2,524.9,1107.1,526.9,1108.3,527.7L1108.3,527.7z" style="fill:#161616;"/>
			</g>
		</g>
	</g>
</g>
</svg>